<svg t="1752583545298" class="icon" viewBox="0 0 1024 1024" version="1.1" xmlns="http://www.w3.org/2000/svg" p-id="4474" width="200" height="200"><path d="M376.794074 896.18963H170.477037c-23.514074 0-42.666667-19.152593-42.666667-42.666667V647.205926c0-5.688889 2.275556-11.093333 6.257778-15.075556l491.425185-491.425185c16.687407-16.687407 43.70963-16.687407 60.397037 0l197.49926 197.499259c16.687407 16.687407 16.687407 43.70963 0 60.397037L391.86963 889.931852c-3.982222 4.077037-9.386667 6.257778-15.075556 6.257778zM170.477037 656.023704v197.499259h197.499259l485.167408-485.167407-197.49926-197.49926-485.167407 485.167408z" p-id="4475" fill="#515151"></path><path d="M797.582222 475.496296c-5.499259 0-10.903704-2.085926-15.075555-6.257777L554.761481 241.493333c-8.343704-8.343704-8.343704-21.807407 0-30.151111s21.807407-8.343704 30.151112 0L812.657778 438.992593c8.343704 8.343704 8.343704 21.807407 0 30.151111-4.171852 4.266667-9.671111 6.352593-15.075556 6.352592zM376.794074 896.18963c-5.499259 0-10.903704-2.085926-15.075555-6.257778L134.068148 662.281481c-8.343704-8.343704-8.343704-21.807407 0-30.151111s21.807407-8.343704 30.151111 0l227.650371 227.650371c8.343704 8.343704 8.343704 21.807407 0 30.151111-4.171852 4.171852-9.576296 6.257778-15.075556 6.257778z" p-id="4476" fill="#515151"></path></svg>