<svg t="1752555760139" class="icon" viewBox="0 0 1024 1024" version="1.1" xmlns="http://www.w3.org/2000/svg" p-id="5086" width="200" height="200"><path d="M190.162014 855.92912c8.007371-1.396813 14.45727-2.827395 19.351744-4.290723 4.891404-1.459235 7.656377-2.191922 8.293897-2.191922 2.412956 0 3.622504 1.335415 3.622504 4.004197 0 1.524726-0.63752 2.543939-1.907443 3.050476-1.143033 0.508583-10.933003 2.668783-29.361725 6.481621l0 15.635095c0 2.415003-1.210571 3.621481-3.622504 3.621481-2.415003 0-3.621481-1.206478-3.621481-3.621481l0-14.299681c-5.085832 0.890276-9.885138 1.619894-14.394848 2.191922-4.513804 0.572028-8.80248 1.11438-12.870122 1.619894-8.264221 0.763386-12.901845 1.144056-13.917988 1.144056-2.162246 0-3.239787-1.144056-3.239787-3.432169 0-2.288113 1.143033-3.557012 3.431146-3.812839 13.981433-1.017166 27.64564-2.541893 40.993646-4.576225l0-22.116717-26.312272 0c-7.625678 0-11.43954-2.221598-11.43954-6.671956 0-2.289136 1.269923-5.02034 3.813862-8.198729 1.267876-1.52575 3.050476-3.718695 5.338588-6.577812 2.288113-2.860141 5.081739-6.449899 8.389064-10.772344l-18.494213 0c-2.417049 0-3.622504-1.144056-3.622504-3.432169 0-2.412956 1.206478-3.622504 3.622504-3.622504l23.641443 0c2.031263-2.921539 3.718695-5.399987 5.052063-7.435343 1.335415-2.031263 2.478448-3.65218 3.432169-4.861728 0.953721-1.206478 1.778506-2.096754 2.478448-2.668783 0.696872-0.572028 1.430582-0.858554 2.191922-0.858554 2.160199 0 3.241834 1.019213 3.241834 3.050476 0 2.162246-2.353604 6.420223-7.05365 12.773931l43.661406 0c2.412956 0 3.622504 1.210571 3.622504 3.622504 0 2.288113-1.210571 3.432169-3.622504 3.432169l-48.619324 0c-2.415003 3.178389-4.956895 6.387477-7.625678 9.627265-2.668783 3.241834-5.466502 6.578836-8.389064 10.011005-1.01819 1.27197-1.524726 2.353604-1.524726 3.241834 0 1.781576 1.588171 2.668783 4.76656 2.668783l23.452131 0 0-14.871709c0-2.288113 1.206478-3.432169 3.621481-3.432169 2.412956 0 3.622504 1.144056 3.622504 3.432169l0 14.871709 26.883277 0c1.396813-0.381693 2.446725-0.158612 3.145643 0.666172 0.696872 0.828878 1.048889 1.717108 1.048889 2.668783 0 0.953721-0.447185 1.843998-1.335415 2.668783-0.890276 0.828878-2.162246 1.048889-3.812839 0.667196l-25.930579 0L190.163037 855.92912zM293.310256 942.489568c0 8.260128-3.813862 12.392238-11.43954 12.392238L170.905438 954.881806c-7.373944 0-11.05887-4.13211-11.05887-12.392238l0-45.759183c0-7.880481 3.684926-11.821233 11.05887-11.821233L281.870716 884.909152c7.625678 0 11.43954 3.941775 11.43954 11.821233L293.310256 942.489568zM285.302885 915.413909l0-15.634072c0-2.541893-0.476861-4.352121-1.430582-5.433756-0.952698-1.078565-2.639107-1.619894-5.052063-1.619894L173.955914 892.726188c-2.288113 0-3.879354 0.446162-4.76656 1.334391-0.8913 0.890276-1.335415 2.796696-1.335415 5.720282l0 15.634072L285.302885 915.414933zM285.302885 939.439092l0-16.587793L167.854962 922.851299l0 16.587793c0 2.794649 0.411369 4.732791 1.240247 5.815449 0.824785 1.077541 2.444679 1.619894 4.861728 1.619894l104.863303 0c2.288113 0 3.938706-0.572028 4.956895-1.715061C284.792255 944.014294 285.302885 942.107875 285.302885 939.439092zM244.309238 832.857659c-0.636496 6.992251-1.842974 13.221116-3.621481 18.684548-1.019213 2.925632-2.225691 5.815449-3.622504 8.67559-1.399883 2.860141-2.988054 5.753027-4.76656 8.67559-3.689019 5.976108-6.03853 9.408277-7.054673 10.295484-0.76134 1.019213-1.653663 1.463328-2.668783 1.335415-1.01819-0.124843-1.876744-0.572028-2.573615-1.335415-0.699941-0.76134-1.143033-1.683339-1.334391-2.764973-0.190335-1.077541 0.220011-2.001587 1.238201-2.764973 6.355755-8.260128 10.739599-15.824407 13.156648-22.687722 2.540869-7.246031 3.812839-16.269545 3.812839-27.074635l0-15.442714c0-6.353708 0.953721-10.485819 2.860141-12.393261 1.906419-2.031263 6.03546-3.176342 12.393261-3.431146 11.565407-0.381693 20.715811-0.953721 27.455305-1.717108 6.863315-0.88823 12.455683-1.969864 16.778128-3.241834 4.319375-1.267876 6.735401-1.906419 7.245008-1.906419 2.412956 0 3.622504 1.335415 3.622504 4.004197 0 1.01819-0.763386 1.971911-2.288113 2.860141-1.52575 0.890276-7.054673 2.162246-16.587793 3.812839-9.78997 1.782599-21.611204 2.925632-35.4637 3.432169-3.306302 0.127913-5.528923 0.63752-6.671956 1.524726-1.144056 0.8913-1.717108 3.241834-1.717108 7.054673l0 17.350157 65.397453 0c2.412956 0 3.622504 1.208525 3.622504 3.621481 0 2.289136-1.210571 3.432169-3.622504 3.432169l-20.591991 0 0 45.187155c0 2.415003-1.27197 3.621481-3.812839 3.621481-2.543939 0-3.813862-1.206478-3.813862-3.621481l0-45.187155L244.309238 832.856635z" p-id="5087" fill="#515151"></path><path d="M401.604704 805.021683 341.928556 805.021683c-2.162246 0-3.241834-1.334391-3.241834-4.003174 0-2.668783 1.078565-4.004197 3.241834-4.004197l143.18612 0c2.413979 0 3.622504 1.335415 3.622504 4.004197 0 2.668783-1.208525 4.003174-3.622504 4.003174l-75.120908 0c-0.636496 18.559705-2.415003 35.591613-5.338588 51.097772l95.522564 0c2.412956 0 3.622504 1.399883 3.622504 4.193509 0 2.797719-1.210571 4.195555-3.622504 4.195555l-71.688739 0 0 58.151421c0 11.05887 2.668783 17.984606 8.007371 20.781302 5.463432 2.923586 12.898775 4.38589 22.307052 4.38589 9.91379 0 16.84055-0.63752 20.781302-1.907443 4.320399-1.27197 7.689123-3.87833 10.106172-7.817036 2.288113-3.812839 3.557012-12.07399 3.812839-24.785499 0-2.288113 0.063445-4.128017 0.190335-5.528923 0.124843-1.396813 0.316202-2.478448 0.572028-3.241834 0.25378-0.76134 0.667196-1.267876 1.240247-1.524726 0.571005-0.25378 1.301645-0.381693 2.191922-0.381693 1.778506 0 2.955308 0.604774 3.527336 1.811252 0.571005 1.210571 0.857531 3.974521 0.857531 8.293897 0 16.650215-2.543939 28.090778-7.625678 34.319643-5.085832 6.226818-14.999622 9.342786-29.742395 9.342786-14.871709 0-25.996071-1.717108-33.365922-5.149277-7.500834-3.431146-11.249205-11.757788-11.249205-24.976858l0-61.773925-17.350157 0c-6.357801 26.691919-18.494213 49.381687-36.416398 68.066235-18.178011 19.066241-29.045523 28.599362-32.602535 28.599362-1.144056 0-2.225691-0.699941-3.241834-2.096754-0.381693-0.63752-0.733711-1.210571-1.047866-1.717108-0.319272-0.508583-0.381693-1.113357-0.190335-1.811252 0.190335-0.699941 0.666172-1.496074 1.429559-2.38328 0.763386-0.890276 2.031263-1.972934 3.813862-3.241834 14.109346-10.042727 26.436092-22.49841 36.987403-37.370119 10.549264-15.252379 18.113543-31.268144 22.688745-48.046273l-64.635089 0c-2.162246 0-3.239787-1.396813-3.239787-4.195555 0-2.794649 1.077541-4.193509 3.239787-4.193509l66.540486 0c1.650593-9.277294 2.923586-18.143219 3.813862-26.597775C400.777873 821.070194 401.349901 812.904211 401.604704 805.021683z" p-id="5088" fill="#515151"></path><path d="M563.668777 822.563198l0-38.894845c0-2.541893 1.206478-3.813862 3.622504-3.813862 2.540869 0 3.812839 1.27197 3.812839 3.813862l0 38.894845 35.080983 0c1.269923-0.381693 2.193968-0.124843 2.764973 0.763386 0.572028 0.890276 0.858554 1.876744 0.858554 2.954285 0 1.082658-0.286526 2.068102-0.858554 2.955308-0.571005 0.892323-1.49505 1.144056-2.764973 0.763386l-35.272341 0c8.133238 6.610558 14.491039 11.791557 19.066241 15.539928 4.576225 3.750417 7.436366 6.070252 8.579399 6.958482 2.288113 1.653663 3.432169 2.987031 3.432169 4.004197 0 1.01819-0.447185 2.033309-1.335415 3.049452-0.76134 0.8913-1.590218 1.335415-2.478448 1.335415-0.890276 0-1.781576-0.252757-2.668783-0.763386-0.890276-0.63445-4.384867-3.557012-10.485819-8.770757-3.050476-2.794649-5.720282-5.209652-8.007371-7.245008-2.288113-2.031263-4.260024-3.748371-5.910617-5.14723l0 29.933753c0 2.543939-1.208525 3.813862-3.622504 3.813862-2.543939 0-3.812839-1.269923-3.812839-3.813862l0-32.602535c-3.307326 3.686972-6.92983 7.53051-10.867512 11.535731-3.941775 4.003174-8.327666 8.230452-13.156648 12.678764-9.532097 8.770757-14.870686 13.474896-16.015765 14.109346-1.399883 0.763386-2.543939 1.144056-3.432169 1.144056-1.143033 0-1.971911-0.381693-2.478448-1.144056-0.636496-0.88823-0.952698-1.969864-0.952698-3.241834 0-1.2689 1.524726-3.112897 4.575202-5.528923 15.124466-11.43954 28.089755-23.384593 38.894845-35.84437l-36.607756 0c-2.288113 0-3.432169-0.953721-3.432169-2.860141 0-2.031263 0.25378-3.303232 0.763386-3.812839 0.506537-0.506537 1.396813-0.763386 2.668783-0.763386L563.668777 822.564221zM548.033681 893.678886l-25.738198 0c-2.288113 0-3.432169-0.952698-3.432169-2.860141 0-2.031263 0.252757-3.303232 0.763386-3.812839 0.506537-0.506537 1.396813-0.763386 2.668783-0.763386l29.742395 0c0.63445-1.269923 1.335415-2.668783 2.096754-4.195555 0.763386-1.524726 1.52575-3.175319 2.288113-4.956895 1.778506-3.684926 3.495614-5.528923 5.149277-5.528923 0.505513 0 1.143033 0.224104 1.906419 0.667196 0.763386 0.447185 1.143033 1.304715 1.143033 2.573615 0 1.27197-0.636496 3.241834-1.906419 5.910617-0.63752 1.399883-1.143033 2.543939-1.524726 3.432169-0.381693 0.890276-0.700965 1.590218-0.953721 2.096754l31.841196 0c7.497765 0 11.249205 2.543939 11.249205 7.625678 0 3.560082-2.544963 9.599635-7.627724 18.113543-4.832052 8.264221-9.723455 14.809287-14.680351 19.637246 5.718235 2.289136 10.356882 4.195555 13.917988 5.720282 3.555989 1.52575 6.099928 2.732228 7.626701 3.622504 3.175319 1.778506 4.76656 3.241834 4.76656 4.38589 0 1.143033-0.318248 2.159176-0.953721 3.049452-0.636496 1.017166-1.524726 1.52575-2.668783 1.52575-1.27197 0-3.496637-0.953721-6.671956-2.860141-3.050476-1.781576-10.55131-5.085832-22.49841-9.914814-8.136308 6.355755-18.302855 11.69332-30.505781 16.016789-12.078083 4.193509-19.447934 6.291287-22.116717 6.291287-2.668783 0-4.004197-1.143033-4.004197-3.431146s2.097778-4.004197 6.29231-5.14723c8.770757-2.164293 16.617469-4.64274 23.547299-7.436366 6.92676-2.796696 13.060457-5.976108 18.398022-9.532097l-17.159822-6.29231c-5.720282-2.031263-8.961092-3.241834-9.723455-3.622504-0.892323-0.506537-1.687432-1.238201-2.384303-2.191922-0.699941-0.953721-1.047866-2.001587-1.047866-3.145643 0-2.540869 1.524726-6.417153 4.575202-11.630898 1.52575-2.540869 2.923586-4.956895 4.195555-7.245008C545.870412 897.492748 547.015491 895.460462 548.033681 893.678886zM550.321794 816.270888c0 0.508583-0.224104 1.081635-0.667196 1.715061-0.447185 0.63752-1.048889 1.082658-1.811252 1.335415-0.763386 0.25685-1.591241 0.223081-2.479471-0.095167-0.890276-0.316202-1.781576-1.111311-2.668783-2.38328-6.863315-9.533121-12.521175-16.650215-16.969487-21.35333-2.034333-2.032286-2.096754-3.813862-0.189312-5.338588 0.887206-0.763386 1.777483-1.144056 2.668783-1.144056 0.76134 0 1.64957 0.318248 2.668783 0.953721 0.887206 0.636496 3.555989 3.87833 8.007371 9.723455l9.150404 11.821233C549.559431 813.666574 550.321794 815.254745 550.321794 816.270888zM573.009516 928.570557c6.482645-5.464455 11.630898-11.755742 15.44476-18.876929 3.938706-6.988158 5.910617-11.438517 5.910617-13.345959 0-1.778506-2.035356-2.668783-6.100952-2.668783l-31.841196 0-8.389064 14.871709c-1.399883 2.543939-2.096754 4.895497-2.096754 7.05365 0 2.162246 1.717108 3.813862 5.14723 4.956895 1.778506 0.63752 4.448312 1.591241 8.007371 2.860141C562.64854 924.694273 567.291281 926.410358 573.009516 928.570557zM605.232404 791.675724c0 1.27197-1.335415 4.193509-4.004197 8.770757-2.668783 4.450359-5.117554 8.359388-7.340175 11.726066-2.225691 3.368724-3.90903 5.561669-5.052063 6.576789-0.763386 0.763386-1.687432 1.210571-2.764973 1.335415-1.081635 0.127913-1.971911-0.063445-2.668783-0.572028-0.700965-0.506537-1.081635-1.335415-1.144056-2.478448-0.065492-1.144056 0.539282-2.478448 1.811252-4.004197 5.845125-6.988158 10.04068-13.470803 12.58462-19.447934 1.524726-3.431146 3.112897-5.14723 4.76656-5.14723 0.763386 0 1.588171 0.286526 2.478448 0.858554C604.78522 789.864472 605.232404 790.659581 605.232404 791.675724zM622.963231 844.87025c-0.636496 2.162246-1.462305 4.513804-2.478448 7.05365-1.01819 2.543939-2.162246 5.338588-3.431146 8.389064-2.543939 5.976108-4.261047 9.342786-5.149277 10.106172-1.01819 0.636496-1.906419 0.952698-2.668783 0.952698-0.76134 0-1.463328-0.124843-2.096754-0.381693-0.63752-0.252757-1.081635-0.695848-1.334391-1.334391-0.25685-0.63445-0.319272-1.52575-0.190335-2.668783 0.124843-1.144056 0.63445-2.603291 1.524726-4.38589 2.668783-5.209652 5.115508-10.772344 7.340175-16.682961 2.223644-5.909593 4.225231-12.297071 6.005784-19.161409 3.685949-13.852496 6.100952-27.198455 7.246031-40.037878 0.381693-4.448312 1.524726-6.674003 3.431146-6.674003 1.778506 0 2.984984 0.381693 3.622504 1.144056 0.63445 0.636496 0.953721 1.715061 0.953721 3.241834 0 0.636496-0.095167 1.906419-0.286526 3.812839-0.190335 1.907443-0.542352 4.38589-1.048889 7.436366-0.381693 3.049452-0.795109 6.004761-1.238201 8.864902-0.447185 2.860141-0.924045 5.690606-1.430582 8.484232l61.774949 0c1.396813 0 2.350534 0.25685 2.860141 0.763386 0.506537 0.508583 0.763386 1.715061 0.763386 3.622504 0 1.906419-1.210571 2.860141-3.622504 2.860141l-13.345959 0c-2.543939 37.244252-10.042727 67.493184-22.49841 90.75498 9.152451 14.746866 20.781302 27.327392 34.890648 37.750789 1.778506 1.396813 2.889817 2.668783 3.337002 3.813862 0.443092 1.144056 0.506537 2.12643 0.190335 2.955308-0.318248 0.824785-0.858554 1.459235-1.619894 1.906419-0.763386 0.445138-1.400906 0.667196-1.907443 0.667196-3.306302 0-9.216919-4.450359-17.730826-13.345959-8.389064-8.518001-15.510252-17.287735-21.355377-26.312272-3.306302 4.832052-7.05365 9.629311-11.249205 14.394848-4.193509 4.76656-8.898671 9.437953-14.108323 14.014178-10.042727 9.277294-16.587793 13.917988-19.638269 13.917988-1.019213 0-1.782599-0.447185-2.289136-1.335415-0.508583-0.890276-0.76134-1.781576-0.76134-2.668783 0-1.781576 1.334391-3.560082 4.003174-5.338588 15.759939-9.788947 28.852118-23.325241 39.276539-40.61093C636.881219 890.88526 628.302843 868.893386 622.963231 844.87025zM630.018927 820.275085c-0.25685 1.27197-0.604774 2.796696-1.048889 4.575202-0.447185 1.781576-0.985444 3.879354-1.619894 6.29231 6.608511 29.108968 15.186887 53.194526 25.739221 72.260767 11.438517-21.861914 17.85567-49.572022 19.256576-83.128279L630.018927 820.275085z" p-id="5089" fill="#515151"></path><path d="M744.606709 871.562169c3.557012-2.412956 6.92676-4.891404 10.106172-7.435343 3.175319-2.541893 6.163373-5.210675 8.960069-8.007371 1.144056-1.144056 2.289136-1.717108 3.432169-1.717108 1.144056 0 2.096754 0.381693 2.860141 1.144056 1.396813 1.906419 1.396813 3.622504 0 5.14723-0.381693 0.508583-1.334391 1.367137-2.860141 2.573615-1.524726 1.210571-3.560082 2.89391-6.100952 5.052063-2.543939 2.162246-5.179976 4.227278-7.912204 6.197142-2.735297 1.971911-5.561669 3.90903-8.484232 5.815449l0 63.49001c0 9.785877-4.513804 14.681374-13.537318 14.681374-3.178389 0-7.310499-0.828878-12.392238-2.478448-5.213745-1.52575-7.818059-3.370771-7.818059-5.528923 0-0.763386 0.190335-1.496074 0.572028-2.193968 0.381693-0.699941 0.919952-1.238201 1.620917-1.619894 0.696872-0.381693 1.459235-0.572028 2.288113-0.572028 0.824785 0 1.683339 0.316202 2.573615 0.953721 5.338588 2.668783 9.534144 4.003174 12.583596 4.003174 4.320399 0 6.482645-2.668783 6.482645-8.007371l0-57.961086c-13.602809 7.627724-21.35333 11.43954-23.260773 11.43954-1.906419 0-3.178389-0.443092-3.812839-1.334391-0.63752-0.88823-0.953721-1.778506-0.953721-2.668783 0-2.032286 2.032286-3.813862 6.100952-5.338588 6.482645-2.541893 13.791098-6.164397 21.926382-10.868535l0-51.096748-24.595164 0c-2.416026 0-3.622504-1.269923-3.622504-3.813862 0-2.540869 1.206478-3.812839 3.622504-3.812839l24.595164 0 0-33.747615c0-2.412956 1.269923-3.622504 3.813862-3.622504 2.540869 0 3.812839 1.210571 3.812839 3.622504l0 33.747615 22.49841 0c2.541893 0 3.813862 1.27197 3.813862 3.812839 0 2.543939-1.27197 3.813862-3.813862 3.813862l-22.49841 0L744.607732 871.562169zM785.218662 858.979596c0 28.727275-2.543939 52.05047-7.627724 69.971631-5.084808 18.048051-9.151427 27.074635-12.201903 27.074635-0.508583-0.128937-1.144056-0.286526-1.906419-0.476861-0.763386-0.190335-1.335415-0.604774-1.717108-1.240247-0.381693-0.636496-0.476861-1.619894-0.286526-2.955308 0.190335-1.334391 0.919952-3.210112 2.191922-5.624091 2.795673-6.228865 5.083785-12.487406 6.864338-18.779715 1.778506-6.29231 3.176342-12.678764 4.193509-19.161409 1.017166-6.482645 1.778506-13.662161 2.289136-21.544689 0.506537-7.880481 0.76134-16.587793 0.76134-26.120914l0-56.435337c0-3.050476 0.190335-5.558599 0.572028-7.531534 0.381693-1.967818 1.111311-3.526313 2.191922-4.670369 1.078565-1.144056 2.509147-1.906419 4.290723-2.288113 1.778506-0.381693 4.066619-0.572028 6.863315-0.572028l70.736041 0c3.050476 0 5.528923 0.25685 7.435343 0.763386 1.906419 0.508583 3.366677 1.334391 4.38589 2.478448 1.016143 1.143033 1.715061 2.701528 2.096754 4.670369 0.381693 1.971911 0.572028 4.356214 0.572028 7.150864l0 15.824407c0 5.976108-0.98749 9.94756-2.955308 11.916401-1.972934 1.971911-5.753027 2.955308-11.344373 2.955308l-77.409021 0L785.214569 858.979596zM869.299639 820.084751l0-16.969487c0-2.541893-0.446162-4.320399-1.334391-5.338588-0.890276-1.016143-2.417049-1.52575-4.576225-1.52575l-72.450079 0c-2.289136 0-3.813862 0.51063-4.576225 1.52575-0.76134 1.01819-1.143033 2.796696-1.143033 5.338588L785.219685 827.1384l78.17036 0c2.541893 0 4.16281-0.506537 4.862751-1.524726C868.948645 824.597531 869.299639 822.753533 869.299639 820.084751zM831.54885 867.558995l-39.466873 0c-2.415003 0-3.621481-1.207501-3.621481-3.622504 0-2.541893 1.206478-3.813862 3.621481-3.813862l39.466873 0 0-19.066241c0-2.794649 1.206478-4.193509 3.622504-4.193509 2.412956 0 3.621481 1.399883 3.621481 4.193509l0 19.066241 43.090401 0c2.412956 0 3.622504 1.27197 3.622504 3.813862 0 2.415003-1.210571 3.622504-3.622504 3.622504l-43.090401 0 0 24.595164 23.833825 0c2.794649 0 5.14723 0.190335 7.05365 0.572028 1.907443 0.38067 3.366677 1.113357 4.38589 2.191922 1.016143 1.081635 1.744737 2.606361 2.191922 4.575202 0.443092 1.971911 0.667196 4.480035 0.667196 7.53051l0 33.93795c0 3.303232-0.224104 5.940292-0.667196 7.912204-0.447185 1.969864-1.240247 3.461845-2.38328 4.481058-1.144056 1.016143-2.639107 1.715061-4.481058 2.096754-1.842974 0.381693-4.098341 0.572028-6.768147 0.572028l-53.576219 0c-5.338588 0-9.026584-0.828878-11.05887-2.478448-2.035356-1.52575-3.050476-5.720282-3.050476-12.58462l0-33.93795c0-2.921539 0.158612-5.338588 0.476861-7.245008 0.316202-1.906419 0.983397-3.432169 2.001587-4.575202 1.016143-1.144056 2.446725-1.937119 4.290723-2.384303 1.840928-0.443092 4.2897-0.666172 7.340175-0.666172l22.49841 0L831.547827 867.558995zM869.489974 941.535847l0-35.080983c0-4.576225-2.033309-6.864338-6.100952-6.864338l-55.100946 0c-3.941775 0-5.910617 2.288113-5.910617 6.864338l0 35.080983c0 4.701069 1.969864 7.05365 5.910617 7.05365l55.100946 0C867.456664 948.589496 869.489974 946.235892 869.489974 941.535847z" p-id="5090" fill="#515151"></path><path d="M345.371982 323.357596 352.939331 323.635935 345.371982 323.635935 345.371982 478.086609 500.102019 555.453674 500.102019 388.824633 345.371982 311.459614Z" p-id="5091" fill="#515151"></path><path d="M655.196353 299.188126 511.998977 227.408313 456.783421 255.113305 600.667435 326.681294Z" p-id="5092" fill="#515151"></path><path d="M431.828053 268.619924 368.80467 299.552423 511.988744 370.595456 577.562205 338.838172Z" p-id="5093" fill="#515151"></path><path d="M523.897981 555.453674 678.626995 478.086609 678.626995 335.263763 678.628018 335.263763 678.628018 311.459614 523.897981 388.824633Z" p-id="5094" fill="#515151"></path><path d="M512 62.825884c-183.326329 0-331.942111 148.615782-331.942111 331.942111s148.615782 331.942111 331.942111 331.942111S843.942111 578.094324 843.942111 394.767995 695.326329 62.825884 512 62.825884zM702.432167 489.98459l-190.43319 95.211479-190.432167-95.211479L321.56681 299.379485l0.354064 0 190.07708-95.039563 190.423981 95.212502 0.00921 0L702.431144 489.98459z" p-id="5095" fill="#515151"></path></svg>