<svg t="1752584752083" class="icon" viewBox="0 0 1024 1024" version="1.1" xmlns="http://www.w3.org/2000/svg" p-id="7712" width="200" height="200"><path d="M283.648 64c-103.232 0-187.2 100.992-187.2 225.024a228.544 228.544 0 0 0 124.288 212.032L196.48 876.8a84.48 84.48 0 0 0 168.896-2.688l-23.936-371.2a225.472 225.472 0 0 0 129.408-213.76C470.72 164.992 386.752 64 283.648 64z m32.896 391.68l-28.992 9.472v19.2l24.704 391.424a31.552 31.552 0 0 1-62.976 2.688l24.384-377.6 0.896-35.84L246.72 454.4a172.8 172.8 0 0 1-97.408-165.312c0-94.912 60.224-172.096 134.4-172.096s134.4 77.312 134.4 172.096a170.176 170.176 0 0 1-101.376 166.4z" fill="#515151" p-id="7713"></path><path d="M901.248 102.4a26.304 26.304 0 0 0-26.496 26.176v207.808a125.632 125.632 0 0 1-89.6 119.424l-30.72 9.152 1.216 33.856v8.768l24.448 369.216a31.552 31.552 0 0 1-62.976 2.624l24.448-374.528v-8.064l1.344-32-30.912-9.216a125.76 125.76 0 0 1-89.6-119.424V128.64a26.496 26.496 0 0 0-52.992 0v207.744a178.496 178.496 0 0 0 119.104 166.912l-24.448 374.528a84.416 84.416 0 0 0 168.832-2.688L808.704 505.6v-2.432A178.368 178.368 0 0 0 928 336.448V128.64a26.304 26.304 0 0 0-26.432-26.24z" fill="#515151" p-id="7714"></path><path d="M693.696 369.28a27.264 27.264 0 0 0 26.752-27.712l-0.576-229.824v-1.024a26.56 26.56 0 1 0-53.056 0v230.848a27.264 27.264 0 0 0 26.816 27.712z" fill="#515151" p-id="7715"></path><path d="M793.6 369.28a27.264 27.264 0 0 0 26.752-27.712l-0.64-227.904a22.592 22.592 0 0 0 0-2.944 26.624 26.624 0 1 0-53.184 0v230.848a27.264 27.264 0 0 0 26.752 27.712z" fill="#515151" p-id="7716"></path></svg>