<svg t="1752499635260" class="icon" viewBox="0 0 1024 1024" version="1.1" xmlns="http://www.w3.org/2000/svg" p-id="1659" width="200" height="200"><path d="M819.150483 512.068206C819.150483 512.068206 853.279262 938.677949 853.279262 938.677949 853.910644 959.138152 839.08169 986.389983 824.269799 1001.082422 809.509102 1015.757797 789.185414 1024.034026 767.940249 1023.999898 746.729213 1023.999898 726.422589 1015.757797 711.627763 1001.082422 696.815873 986.389983 682.038111 959.121088 682.635365 938.677949 682.635365 938.677949 716.764144 512.068206 716.764144 512.068206 652.533781 473.724523 597.296352 381.542689 597.296352 267.467244 597.296352 119.877338 673.710689 0.221837 767.940249 0.221837 862.221002 0.221837 938.618275 119.860273 938.618275 267.467244 938.618275 381.542689 883.414974 473.724523 819.150483 512.068206ZM369.230784 497.051543C369.230784 497.051543 341.347571 512.068206 341.347571 512.068206 341.347571 512.068206 377.711785 968.131086 377.711785 968.131086 378.309039 982.874718 370.561806 997.004033 356.142397 1007.618083 341.705923 1018.21507 321.860038 1023.846318 301.177997 1023.846318 301.177997 1023.846318 240.172804 1023.846318 240.172804 1023.846318 219.422506 1023.846318 199.576621 1018.21507 185.174276 1007.618083 170.754867 997.021097 162.973505 983.062427 163.639016 968.30173 163.639016 968.30173 204.832453 512.068206 204.832453 512.068206 204.832453 512.068206 177.273464 497.068608 177.273464 497.068608 126.609291 497.068608 85.381725 462.854506 85.381725 426.746258 85.381725 426.746258 85.381725 34.265295 85.381725 34.265295 85.381725 13.41261 98.128824 0 113.572097 0 113.572097 0 120.073629 0 120.073629 0 135.551031 0 153.639284 13.9928 153.639284 34.265295 153.639284 34.265295 153.639284 324.35992 153.639284 324.35992 153.639284 341.577889 167.666212 364.239398 191.812324 364.239398 191.812324 364.239398 198.279727 364.239398 198.279727 364.239398 222.442903 364.239398 238.961232 341.577889 238.961232 324.35992 238.961232 324.35992 238.961232 34.265295 238.961232 34.265295 238.961232 13.378482 254.54102 0 270.001357 0 270.001357 0 276.571147 0 276.571147 0 292.048549 0 307.218791 13.156644 307.218791 34.265295 307.218791 34.265295 307.218791 324.35992 307.218791 324.35992 307.218791 341.577889 324.146666 364.239398 348.275713 364.239398 348.275713 364.239398 354.777245 364.239398 354.777245 364.239398 378.906292 364.239398 392.54074 341.577889 392.54074 324.35992 392.54074 324.35992 392.54074 34.265295 392.54074 34.265295 392.54074 12.610584 411.038538 0 426.481811 0 426.481811 0 432.949215 0 432.949215 0 448.460745 0 460.798299 13.9928 460.798299 34.265295 460.798299 34.265295 460.798299 426.746258 460.798299 426.746258 460.798299 462.820378 419.94615 497.051543 369.230784 497.051543Z" p-id="1660" fill="#c4bcab"></path></svg>