<svg t="1752502417395" class="icon" viewBox="0 0 1280 1024" version="1.1" xmlns="http://www.w3.org/2000/svg" p-id="4257" width="200" height="200"><path d="M569.216 129.024s-81.92-4.096-135.168 64.512c-52.224 67.584-13.312 172.032 12.288 225.28 24.576 53.248 156.672 263.168 160.768 268.288 5.12 5.12 10.24 3.072 11.264-1.024 0-4.096 15.36-305.152 3.072-378.88-12.288-75.776-47.104-169.984-52.224-178.176M284.544 268.288c-9.216 1.024-76.8 68.608-82.944 134.144-6.144 66.56 21.504 110.592 100.352 162.816 78.848 56.32 267.264 159.744 271.36 150.528 3.072-9.216-72.704-144.384-135.168-243.712-63.488-98.304-144.384-204.8-153.6-203.776z m24.576 608.256c57.344 25.6 145.408-31.744 169.984-48.128 22.528-17.408 64.512-49.152 64.512-49.152l-321.536 7.168s30.72 64.512 87.04 90.112m8.192-261.12c-57.344-28.672-177.152-95.232-181.248-94.208-4.096 1.024-22.528 83.968 15.36 146.432 36.864 62.464 109.568 80.896 142.336 86.016 37.888 5.12 257.024 3.072 256-1.024-2.048-4.096-174.08-108.544-232.448-137.216z m536.576-422.912C801.664 124.928 718.72 128 718.72 128c-5.12 8.192-39.936 102.4-52.224 176.128-12.288 73.728 3.072 374.784 3.072 378.88 0 4.096 6.144 6.144 11.264 1.024 5.12-5.12 136.192-214.016 160.768-268.288 24.576-51.2 64.512-154.624 12.288-223.232z m296.96 328.704c-5.12-1.024-123.904 65.536-181.248 94.208-57.344 28.672-230.4 133.12-231.424 137.216-1.024 4.096 218.112 7.168 256 1.024 32.768-5.12 105.472-24.576 143.36-86.016 35.84-62.464 18.432-145.408 13.312-146.432m-343.04 306.176c24.576 16.384 113.664 73.728 169.984 48.128 57.344-25.6 88.064-89.088 88.064-89.088l-323.584-8.192s41.984 31.744 65.536 49.152m278.528-424.96c-6.144-65.536-73.728-133.12-82.944-134.144-9.216-1.024-91.136 104.448-153.6 203.776-62.464 98.304-139.264 234.496-135.168 243.712 3.072 9.216 191.488-94.208 271.36-150.528 77.824-52.224 106.496-96.256 100.352-162.816z" fill="#c4bcab" p-id="4258"></path></svg>