<?xml version="1.0" standalone="no"?><!DOCTYPE svg PUBLIC "-//W3C//DTD SVG 1.1//EN"
        "http://www.w3.org/Graphics/SVG/1.1/DTD/svg11.dtd">
<svg t="1735102629170" class="icon" viewBox="0 0 1024 1024" version="1.1" xmlns="http://www.w3.org/2000/svg" p-id="2672"
     xmlns:xlink="http://www.w3.org/1999/xlink" width="200" height="200">
    <path d="M313.6 972.8c-17.067 0-32-14.933-32-32V529.067c0-17.067 14.933-32 32-32s32 14.933 32 32v409.6c0 19.2-14.933 34.133-32 34.133z"
          fill="#543E3E" p-id="2673"></path>
    <path d="M313.6 561.067c-96 0-172.8-117.334-172.8-266.667S215.467 27.733 313.6 27.733 486.4 145.067 486.4 294.4s-76.8 266.667-172.8 266.667z m0-469.334c-51.2 0-108.8 83.2-108.8 202.667s57.6 202.667 108.8 202.667 108.8-83.2 108.8-202.667S364.8 91.733 313.6 91.733z m418.133 910.934c-17.066 0-32-14.934-32-32V473.6c0-17.067 14.934-32 32-32s32 14.933 32 32v497.067c0 17.066-14.933 32-32 32z"
          fill="#FFBB12" p-id="2674"></path>
    <path d="M864 57.6c-17.067 0-32 14.933-32 32v247.467c0 17.066-4.267 32-10.667 44.8H761.6v-326.4c0-19.2-14.933-34.134-32-34.134s-32 14.934-32 34.134v326.4H640c-6.4-12.8-10.667-27.734-10.667-44.8v-243.2c0-17.067-14.933-32-32-32s-32 14.933-32 32V339.2c0 91.733 74.667 166.4 166.4 166.4s166.4-74.667 166.4-166.4V89.6C896 72.533 883.2 57.6 864 57.6z"
          fill="#543E3E" p-id="2675"></path>
</svg>