<?xml version="1.0" standalone="no"?><!DOCTYPE svg PUBLIC "-//W3C//DTD SVG 1.1//EN"
        "http://www.w3.org/Graphics/SVG/1.1/DTD/svg11.dtd">
<svg t="1735103424767" class="icon" viewBox="0 0 1024 1024" version="1.1" xmlns="http://www.w3.org/2000/svg"
     p-id="10486" xmlns:xlink="http://www.w3.org/1999/xlink" width="200" height="200">
    <path d="M656.905612 125.584906c57.962264 125.584906 289.811321 231.849057 289.811321 357.433962 0 96.603774-28.981132 115.924528-28.981132 115.924528H396.075423s-28.981132-19.320755-28.981132-115.924528c0-125.584906 231.849057-231.849057 289.811321-357.433962"
          fill="#E08922" p-id="10487"></path>
    <path d="M77.282971 231.849057v676.226415h173.886792V231.849057z" fill="#F1CF81" p-id="10488"></path>
    <path d="M77.282971 202.867925a131.381132 131.381132 0 0 1 0-67.622642c9.660377-38.641509 67.622642-86.943396 86.943396-135.245283 57.962264 106.264151 106.264151 106.264151 86.943396 202.867925z"
          fill="#FF9C00" p-id="10489"></path>
    <path d="M43.47165 188.377358m26.566038 0l183.547169 0q26.566038 0 26.566038 26.566038l0 0q0 26.566038-26.566038 26.566038l-183.547169 0q-26.566038 0-26.566038-26.566038l0 0q0-26.566038 26.566038-26.566038Z"
          fill="#FF9C00" p-id="10490"></path>
    <path d="M43.47165 304.301887m26.566038 0l183.547169 0q26.566038 0 26.566038 26.566038l0 0q0 26.566038-26.566038 26.566037l-183.547169 0q-26.566038 0-26.566038-26.566037l0 0q0-26.566038 26.566038-26.566038Z"
          fill="#FF9C00" p-id="10491"></path>
    <path d="M78.53882 879.09434H328.452782v144.90566H78.53882A59.218113 59.218113 0 0 1 19.320706 964.878491v-26.566038A59.218113 59.218113 0 0 1 78.53882 879.09434z"
          fill="#FF9C00" p-id="10492"></path>
    <path d="M350.768254 589.283019h612.274717a41.636226 41.636226 0 0 1 41.636226 41.636226v351.347925a41.636226 41.636226 0 0 1-41.636226 41.73283H309.132027V630.919245A41.636226 41.636226 0 0 1 350.768254 589.283019z"
          fill="#F1CF81" p-id="10493"></path>
    <path d="M801.811272 1024V862.961509C801.811272 840.45283 815.722216 792.150943 860.836178 792.150943S917.735801 837.264906 917.735801 862.961509V1024zM396.075423 1024V862.961509C396.075423 840.45283 409.986367 792.150943 455.100329 792.150943S511.999952 837.264906 511.999952 862.961509V1024zM569.962216 1024V782.490566c0-33.811321 20.963019-106.264151 88.58566-106.264151S743.849008 743.849057 743.849008 782.490566v241.509434z"
          fill="#FF9C00" p-id="10494"></path>
    <path d="M396.075423 1024s1.062642-115.924528 0-161.038491c1.062642-6.375849 14.007547-70.810566 59.024906-70.810566s57.962264 57.962264 56.899623 70.810566V1024z"
          fill="#FF9C00" p-id="10495"></path>
</svg>