<?xml version="1.0" standalone="no"?><!DOCTYPE svg PUBLIC "-//W3C//DTD SVG 1.1//EN"
        "http://www.w3.org/Graphics/SVG/1.1/DTD/svg11.dtd">
<svg t="1735103335183" class="icon" viewBox="0 0 1078 1024" version="1.1" xmlns="http://www.w3.org/2000/svg" p-id="9414"
     xmlns:xlink="http://www.w3.org/1999/xlink" width="210.546875" height="200">
    <path d="M377.4464 489.6768c3.4816-18.432 47.9232-14.336 47.9232-14.336l-49.152-95.8464c-4.5056-40.7552 30.9248-25.8048 30.9248-25.8048l50.176 119.808 27.4432-61.2352-45.8752-76.3904c-5.9392-51.2 28.4672-28.4672 28.4672-28.4672l31.3344 59.5968 21.7088-80.4864c30.9248-22.3232 30.5152 13.1072 30.5152 13.1072l-21.0944 77.4144 33.9968-23.1424c29.696-7.3728 19.456 29.696 19.456 29.696L507.904 429.2608l-21.2992 49.152 74.9568-21.504c35.4304-13.1072 30.9248 18.432 30.9248 18.432 14.9504-30.1056 69.632-31.5392 69.632-31.5392l-10.24-19.6608c46.8992-62.8736 0-98.304 0-98.304v-35.4304c-1.2288-31.5392-27.4432-46.2848-27.4432-46.2848h-31.9488l-18.432-49.5616c-22.9376-28.8768-46.8992-9.0112-46.8992-9.0112-14.9504-33.9968-42.1888-29.0816-42.1888-29.0816C452.8128 161.792 450.7648 194.56 450.7648 194.56l-4.7104-9.0112c-6.9632-10.24-32.3584 0-32.3584 0-19.8656 7.9872-24.9856 47.104-24.9856 47.104l-20.2752-7.7824c-29.696 9.216-36.6592 31.5392-36.6592 31.5392v35.4304c-29.696-6.5536-43.2128 13.1072-43.2128 13.1072-16.9984 33.9968 7.7824 70.8608 7.7824 70.8608-12.4928-1.2288-7.7824 35.4304-7.7824 35.4304-23.7568 7.7824-26.624 64.3072-26.624 64.3072 60.6208-9.4208 115.5072 14.1312 115.5072 14.1312zM730.7264 399.1552c19.456-73.5232 105.0624-110.1824 105.0624-110.1824s21.7088 3.8912 10.24 88.8832-61.44 82.944-61.44 82.944l20.2752-60.416c5.7344-39.3216-25.1904-22.528-25.1904-22.528l-34.2016 100.352 14.9504 26.624c28.672 0.8192 73.1136-31.3344 73.1136-31.3344 50.3808-34.4064 46.2848-128.2048 46.2848-128.2048-2.8672-75.9808-25.6-94.4128-25.6-94.4128s-21.7088-3.8912-91.5456 48.5376c-69.632 52.4288-73.1136 148.2752-73.1136 148.2752l33.1776 13.1072 7.9872-61.6448zM618.7008 504.832s-63.488-10.0352-67.7888 73.9328l97.4848 73.5232 7.9872 26.2144s64.1024 39.3216 97.0752-16.9984c33.1776-56.32 0-107.52 0-107.52l-11.264-5.9392s-3.4816-61.2352-57.344-69.632c-53.6576-8.3968-66.1504 26.4192-66.1504 26.4192z"
          fill="#FFA42F" p-id="9415"></path>
    <path d="M779.8784 536.3712s46.8992 100.352-18.2272 163.2256c0 0 2.2528 18.432 37.6832 0 0 0 38.912 68.8128 104.0384 8.192 65.1264-60.6208-7.9872-123.2896-7.9872-123.2896s-28.672-113.0496-115.5072-48.128zM205.0048 681.1648c89.088 60.416 158.9248 10.6496 158.9248 10.6496-15.9744 8.192-26.2144-98.5088-26.2144-98.5088-25.1904-16.9984 5.7344-30.5152 5.7344-30.5152l12.9024-46.4896c-10.0352-15.36-109.9776 0-109.9776 0-6.7584-8.8064-64.1024 37.6832-64.1024 37.6832s-66.56 66.9696 22.7328 127.1808zM558.08 496.2304c-36.6592-1.2288-81.1008 28.2624-81.1008 28.2624l50.176 28.2624c-2.2528-26.2144 30.9248-56.5248 30.9248-56.5248zM394.6496 516.3008s-57.1392 77.0048-5.9392 166.2976c51.2 89.088 151.1424 78.6432 151.1424 78.6432s33.1776-9.216 66.3552-35.4304 20.48-47.3088 20.48-47.3088L413.696 516.096c-5.3248-3.8912-19.0464 0.2048-19.0464 0.2048z"
          fill="#FFA42F" p-id="9416"></path>
    <path d="M950.272 632.6272v35.4304l23.9616 15.7696s86.8352 36.6592-194.3552 99.7376c-281.1904 62.8736-638.976-56.32-638.976-56.32-51.4048-18.432 4.5056-58.9824 4.5056-58.9824l-9.216-23.552c-16.5888-5.9392-41.984 33.1776-46.6944 40.7552-0.2048 2.048-0.4096 4.3008-0.8192 6.7584-6.144 55.296 50.7904 71.68 50.7904 71.68 4.5056 86.6304 148.8896 110.3872 148.8896 110.3872s187.1872 33.9968 422.7072 14.336c235.52-19.6608 248.0128-99.7376 248.0128-99.7376l2.2528-20.8896s30.9248-26.2144 38.912-28.8768c75.9808-24.9856-49.9712-106.496-49.9712-106.496z"
          fill="#FFA42F" p-id="9417"></path>
</svg>