<?xml version="1.0" standalone="no"?><!DOCTYPE svg PUBLIC "-//W3C//DTD SVG 1.1//EN"
        "http://www.w3.org/Graphics/SVG/1.1/DTD/svg11.dtd">
<svg t="1735103559571" class="icon" viewBox="0 0 1195 1024" version="1.1" xmlns="http://www.w3.org/2000/svg"
     p-id="15622" xmlns:xlink="http://www.w3.org/1999/xlink" width="233.3984375" height="200">
    <path d="M153.293413 403.739015H26.677036a26.677036 26.677036 0 0 1 0-53.354071h126.616377a26.677036 26.677036 0 0 1 0 53.314255zM1168.454157 407.362314h-126.616378a26.637219 26.637219 0 1 1 0-53.274438h126.616378a26.876118 26.876118 0 0 1 26.637219 26.637219 26.51777 26.51777 0 0 1-26.637219 26.637219z"
          fill="#50D9E3" p-id="15623"></path>
    <path d="M1035.268061 278.715297a449.368691 449.368691 0 0 1-449.408507 449.926121 453.469788 453.469788 0 0 1-68.205615-5.176141A450.403919 450.403919 0 0 1 135.813982 278.715297z"
          fill="#FDD580" p-id="15624"></path>
    <path d="M270.791819 1022.805506a26.876118 26.876118 0 0 1-26.637219-26.637219 28.468777 28.468777 0 0 1 1.194494-7.326231l67.250019-234.917178a26.477953 26.477953 0 0 1 25.442725-18.753558h1.194495a5.494673 5.494673 0 0 0 3.065868 0.55743c1.274127 0 1.831558 0.637064 3.105685 0.637064h0.637063c0 0.597247 0 0.597247 0.597247 0.597247a3.583482 3.583482 0 0 1 2.388988 0.597247 607.639163 607.639163 0 0 0 489.424061 0 2.388988 2.388988 0 0 1 1.831558-0.597247c0.637064 0 1.194494-0.597247 1.831558-0.597247h0.597247a3.742748 3.742748 0 0 1 2.428804-0.637064h7.286415c0.557431 0 1.791741 0.637064 2.388988 0.637064s1.831558 0.597247 2.428805 0.597247c1.234311 0.597247 1.831558 0.597247 2.428804 1.194494 1.234311 0.597247 1.791741 0.597247 2.428805 1.234311a3.065868 3.065868 0 0 1 2.428805 1.194494c0.597247 0 1.194494 0.597247 1.831557 1.23431l1.751925 1.791742 1.831558 1.831557a4.459445 4.459445 0 0 0 1.23431 2.388988c0.557431 0.637064 0.557431 1.831558 1.194495 2.468622l0.597247 0.55743c0 0.637064 0.597247 1.234311 0.597247 1.831558s0.637064 1.194494 0.637063 1.831558l67.25002 234.917178a26.239054 26.239054 0 0 1-18.156311 32.131892 32.370791 32.370791 0 0 1-7.286414 1.194494z"
          fill="#50D9E3" p-id="15625"></path>
    <path d="M831.089198 985.178941l-63.706353-222.49444-1.035229 0.318532 64.661949 226.157555a24.925111 24.925111 0 0 1 0.875963 5.056692 26.079788 26.079788 0 0 0-0.79633-9.038339z"
          fill="#50D9E3" p-id="15626"></path>
    <path d="M178.975037 370.29318a26.039972 26.039972 0 0 1-6.808617 11.944941 26.358504 26.358504 0 0 1-18.873007 7.963294H26.677036a26.836301 26.836301 0 0 1-25.641808-19.908235A25.124193 25.124193 0 0 0 0.039816 376.982347a26.876118 26.876118 0 0 0 26.63722 26.637219h126.616377a26.51777 26.51777 0 0 0 26.637219-26.637219 25.84089 25.84089 0 0 0-0.955595-6.689167z"
          fill="#29AECC" p-id="15627"></path>
    <path d="M1043.231355 251.679913H142.980947a26.915934 26.915934 0 0 0-26.637219 26.677035 476.68279 476.68279 0 0 0 953.365581 0 26.876118 26.876118 0 0 0-26.477954-26.677035zM593.305234 702.362548A424.682479 424.682479 0 0 1 170.25523 304.994168h845.582393a424.244498 424.244498 0 0 1-422.811105 397.36838z"
          fill="#FDD580" p-id="15628"></path>
    <path d="M1194.772844 373.279415a26.039972 26.039972 0 0 1-6.808617 11.944941 26.358504 26.358504 0 0 1-18.873007 7.963295h-126.616377a26.836301 26.836301 0 0 1-25.641808-19.908236 25.124193 25.124193 0 0 0-0.995412 6.928066 26.876118 26.876118 0 0 0 26.63722 26.637219h126.616377a26.51777 26.51777 0 0 0 26.637219-26.637219 25.84089 25.84089 0 0 0-0.955595-6.928066z"
          fill="#29AECC" p-id="15629"></path>
    <path d="M119.489229 269.159344c0 63.706354 212.699588 115.109418 474.7716 115.109417s475.44848-51.363248 475.44848-115.109417-212.699588-115.069601-475.567929-115.069601S119.489229 205.45299 119.489229 269.159344z"
          fill="#F3C256" p-id="15630"></path>
    <path d="M589.323587 384.228945c194.543277 0 362.011354-28.468777 437.264484-69.639008-26.199238-50.288203-193.707131-90.26394-402.146357-93.887239-11.427327 0-53.115172 21.819426-157.752858 30.897582s-142.184618-2.468621-205.134458 4.857609c-58.012598 15.926588-98.067968 36.312622-109.495295 58.729295C226.993701 355.799984 394.621044 384.228945 589.323587 384.228945z"
          fill="#F0301E" p-id="15631"></path>
    <path d="M741.223423 52.398476c9.993934 16.444203 15.926588 34.043083 24.407497 51.004899 5.972471 7.326231 1.35376 19.231355 15.926588 22.854654 0.398165 0 0.637064 1.433393 0.398165 2.110273-2.03064 5.813205 1.951007 10.27265 5.295591 14.89136a64.701765 64.701765 0 0 0 5.136324 19.271172A288.231433 288.231433 0 0 0 815.72004 222.972237h-3.185317a38.900692 38.900692 0 0 0-35.436659 2.986236 22.934287 22.934287 0 0 0-13.577417 26.000155c0.437981 2.189906 2.468621 4.220546 1.473209 6.649351a299.419862 299.419862 0 0 0-34.202348-8.839257A46.903803 46.903803 0 0 0 686.236877 262.788708a95.55953 95.55953 0 0 0-17.71833 36.989502 61.317365 61.317365 0 0 0-36.352438 5.813205c-3.981647 2.866786-6.171553 6.649351-10.352282 9.436503a21.222179 21.222179 0 0 1-9.237421 4.897426 17.399798 17.399798 0 0 0-4.499262-11.546776 134.221324 134.221324 0 0 1-17.280348-28.229878 719.563263 719.563263 0 0 0-43.121238-88.193484 347.27926 347.27926 0 0 1-32.49024-76.009643c-1.791741-6.131737-7.405864-12.30329-2.787153-19.151722a614.646862 614.646862 0 0 0 92.214946 1.552842 60.481219 60.481219 0 0 0 38.303445 21.739793 22.735205 22.735205 0 0 0 18.833191-3.424216 102.527413 102.527413 0 0 1 14.652462-8.759624 132.588848 132.588848 0 0 0 49.531689-37.188584c3.782565-0.995412 4.937242-3.702932 6.928066-6.012287 3.3844-3.981647 3.583482-9.038339 8.361459-12.462555z"
          fill="#763103" p-id="15632"></path>
    <path d="M207.642896 207.045649a149.471032 149.471032 0 0 0-48.73536 1.552842c-7.087332 0.796329-13.5376 1.154678-17.04145-4.220546 2.946419-2.269539 6.052104-4.459445 8.91889-6.7688a96.23641 96.23641 0 0 1 54.628198-20.107317 267.8454 267.8454 0 0 1 70.315887 6.689167A75.014231 75.014231 0 0 0 245.150012 167.229178 183.553931 183.553931 0 0 0 155.324053 150.147912c-5.494673 0.398165-11.029162 0.796329-16.523835 0.995412-1.871374 0-3.981647 0-5.056692-1.513026s0.517614-2.309355 1.632475-3.424217a84.012754 84.012754 0 0 1 53.871685-21.978692l50.367836-4.379811a281.980247 281.980247 0 0 1 42.125826 3.981647c5.016875 3.105685 11.586593 0.437981 17.519248 2.468621a236.70892 236.70892 0 0 1 26.716852 10.471732 9.595769 9.595769 0 0 0 8.839256 1.154677c2.906602-1.552842-0.278715-3.065868-1.313943-4.539077s-1.075045-2.03064 0-3.065869c1.712108-1.552842 3.344584-0.278715 5.136324 0 6.928066 1.234311 11.148612-0.955595 11.108796-5.733571 0-1.075045-1.513026-2.468621-0.875962-3.065869 2.229722-2.428805 1.871374-6.569718 6.012287-7.246597 3.065868-0.517614 4.977059 2.70752 6.450268 5.016875a10.1532 10.1532 0 0 0 16.125671 1.234311 14.294113 14.294113 0 0 0 3.981647-5.096509c4.499261-3.782565 2.548254-8.321642 3.225134-12.502372 0.278715-1.672292 0-3.663115 3.3844-3.981647 2.826969-0.318532 4.260362 0.637064 4.539078 2.468622s1.911191 2.189906 4.698343 1.751924 7.007699-0.517614 10.511549-0.716696l2.906602 1.951007a0.995412 0.995412 0 0 1 0.318532 0.67688l-4.618711 2.388988c-8.281826 4.180729-7.963294 5.653939 1.871374 9.237421a152.616533 152.616533 0 0 1-13.019986 24.407497c-3.185318-1.274127-5.853021-4.73816-10.232833-1.274127-2.548254 2.03064-1.513026 4.220546 1.35376 5.494673a23.889883 23.889883 0 0 0 6.450268 0.796329 18.833191 18.833191 0 0 1-2.229722 6.967883A525.059802 525.059802 0 0 1 361.175208 207.045649a10.94953 10.94953 0 0 1-7.963294-5.972471c-1.393576-2.986235-5.096508-2.189906-7.963294-1.871374s-6.490085 2.787153-5.375224 3.702932c4.618711 3.782565-0.238899 6.330819-1.552842 9.317054a111.844467 111.844467 0 0 0-46.067657 5.773388 47.779765 47.779765 0 0 0-26.836302 15.090443h-2.150089a9.237421 9.237421 0 0 0-7.485497-5.215958c-0.278715-1.712108-1.552842-2.70752-4.300178-2.508437a16.484019 16.484019 0 0 0-15.408975-8.162377A164.601291 164.601291 0 0 0 207.642896 207.045649z m155.841667-42.285092c-5.056692 0.238899-10.033751 1.911191-11.029162 4.937242s5.056692 4.618711 8.361459 4.937243c4.817793 0.437981 8.202193-2.03064 8.361459-5.733572 0-2.588071-1.274127-4.260362-5.693756-3.981647zM294.084454 203.064002c2.269539-4.73816-0.278715-8.202193-5.136324-11.228245-2.229722-1.433393-6.450268-1.075045-7.087332-3.981647-0.358348-1.552842-2.269539-2.269539-4.300179-1.751925-3.583482 0.955595-1.234311 3.105685-0.318532 3.782565A56.857921 56.857921 0 0 0 294.084454 203.064002z m14.095031 0.637063a9.277238 9.277238 0 0 0-6.330819-3.304767c-3.981647 0-3.344584 2.110273-3.304767 3.702932s0 3.981647 3.742748 3.583482a6.450268 6.450268 0 0 0 5.853022-3.981647z m60.521036-67.01112c3.424217-0.517614 4.937242-2.349172 4.937242-4.260363s-2.946419-1.911191-5.215957-1.951007c-3.105685 0-5.096508 0.67688-4.618711 2.986236s1.751925 3.145501 4.897426 3.185317z m23.889883-12.18384c-0.67688-1.990824-3.065868-2.747336-5.693756-2.866786-1.712108 0-3.225134 0.875962-2.986235 2.110273 0.358348 1.911191 2.428805 3.105685 5.136325 3.3844a3.026052 3.026052 0 0 0 3.543666-2.667704z"
          fill="#8CA322" p-id="15633"></path>
    <path d="M604.533478 98.665215a614.646862 614.646862 0 0 1-92.214946-1.552842c-2.667704-2.588071-7.127148-2.269539-10.392099-2.986236a350.384944 350.384944 0 0 0-38.303445-9.237421 34.600513 34.600513 0 0 0-18.833191-8.879073l-22.496306-23.6908 2.070456-3.981647C457.451435 23.889883 498.940198 17.359981 542.101252 14.732094a520.441092 520.441092 0 0 1 58.450579-1.393576c0.756513 4.618711-4.618711 7.724395-4.73816 11.944941a464.419317 464.419317 0 0 0-113.038961 9.117972 51.403064 51.403064 0 0 0-20.824014 7.963294c-7.166965 5.375224-7.366047 9.715219 0.517614 14.652461a106.947041 106.947041 0 0 0 43.798118 15.647873A505.669181 505.669181 0 0 0 569.415351 77.761568a186.102185 186.102185 0 0 0 32.60969 1.274127l6.848433 6.131736c0.597247 4.897426-6.131737 8.361459-3.981647 13.497784zM741.223423 52.398476c-4.578894 3.344584-4.977059 8.640174-8.560541 12.621821-1.990824 2.269539-3.145501 5.016875-6.928066 5.972471-1.194494-5.375224-1.513026-11.347694-11.745859-10.551365 0-7.087332-7.44568-9.157788-13.219068-12.30329l-2.388988-1.552842c0.318532-2.269539-1.911191-2.906602-3.981648-3.981647A191.119061 191.119061 0 0 0 643.633253 27.87153c0.557431-3.981647 2.548254-7.525313 0-11.307878a3.702932 3.702932 0 0 1 0-1.154678c18.355393 3.185318 36.790419 6.171553 55.026363 9.635586 19.510071 3.583482 36.471887 10.312466 42.205459 27.353916z"
          fill="#C96332" p-id="15634"></path>
    <path d="M608.316043 10.591181a42.603624 42.603624 0 0 0 35.436659 5.813205c2.388988 3.981647 0.358348 7.565129 0 11.307878a26.677036 26.677036 0 0 0-9.715219 12.502372 8.679991 8.679991 0 0 1-7.366047 6.131736 8.361459 8.361459 0 0 0-5.97247-1.513026c-1.990824-4.73816 4.897426-4.73816 6.609534-7.604946 1.35376-2.229722 4.300179-4.260362 2.189906-6.848433a11.307878 11.307878 0 0 0-8.759624-2.508437 6.569718 6.569718 0 0 0-5.29559 1.552842 6.609534 6.609534 0 0 0-2.269539 5.056692c-0.318532 5.494673-3.981647 8.321642-10.27265 9.555953-1.951007-0.836146-3.623299-3.105685-6.131736-0.756513l-3.623299-0.238899a9.436504 9.436504 0 0 1 2.189906-13.856132c0.915779-0.67688 0.517614-2.468621 0.716696-3.742748 0-4.300179 5.534489-7.405864 4.73816-11.944941z"
          fill="#763103" p-id="15635"></path>
    <path d="M245.150012 167.229178a74.098452 74.098452 0 0 1 30.579049 16.722918 267.526868 267.526868 0 0 0-70.315887-6.728984 186.898515 186.898515 0 0 0 39.816471-9.993934zM407.999378 102.527413a101.253286 101.253286 0 0 0-10.511548 0.716696c-2.787153 0.437981-4.379812 0.398165-4.698344-1.751925s-1.712108-2.787153-4.539078-2.468621c-3.583482 0.358348-3.065868 2.349172-3.3844 3.981647-0.67688 4.220546 1.274127 8.759624-3.225134 12.502372 0-6.609534 1.393576-13.497784-8.759624-17.837779l-0.318531-3.26495a25.243643 25.243643 0 0 1 25.920522-0.756513c1.552842 3.742748 10.193017 3.981647 9.516137 8.839256z"
          fill="#F1C24E" p-id="15636"></path>
    <path d="M407.680846 79.632942c-0.477798 2.03064-2.388988 3.105685-5.295591 2.946419s-6.012287-0.915779-6.450268-3.105685 2.906602-3.344584 5.614123-3.344584a6.529901 6.529901 0 0 1 6.131736 3.50385zM372.602535 94.444669l0.278715 3.264951a14.851544 14.851544 0 0 0-1.831557 0.358348c-3.583482 1.313944-6.928066 1.552842-9.078156-1.234311-1.35376-1.672292-0.875962-3.543666 1.313944-4.777976 4.937242-2.826969 5.534489 2.70752 9.317054 2.388988zM346.084766 99.541177c0 2.110273-1.831558 3.344584-4.937243 3.105685s-4.897426-1.35376-5.056692-3.3844 2.150089-2.906602 5.096509-2.866786 4.777977 1.035228 4.897426 3.145501z"
          fill="#F67464" p-id="15637"></path>
    <path d="M255.701376 227.90948a9.396687 9.396687 0 0 1 7.525313 5.215957l-1.871374 0.915779a24.447313 24.447313 0 0 0-11.944941 0.398165 150.984058 150.984058 0 0 0-53.154989 13.776499c-22.536123 10.033751-20.943464 19.032273 3.742749 27.473365 1.911191 0.67688 4.897426 0.756513 4.61871 2.787153s-2.787153 1.672292-4.339995 2.349172c-5.534489 2.428805-11.944941 3.981647-10.869897 10.073567 0.557431 3.304767 4.220546 4.73816 6.569718 6.928066a128.647018 128.647018 0 0 0 102.686679 23.889882c0.517614 0.796329 1.751925 1.751925 1.433393 2.349172-4.937242 9.237421 3.742748 13.179252 14.134847 16.404386a59.087643 59.087643 0 0 1 17.678513 7.963294 16.404386 16.404386 0 0 0 13.219068 4.897426 16.563652 16.563652 0 0 0 12.343106-6.928066c3.981647 0.318532 5.574306-0.995412 5.454857-3.543666 10.27265-3.344584 21.142546-6.052104 30.618866-10.193016 4.379812-1.911191 10.790264 0 13.258885-3.981647l1.393576-0.557431 15.68769-10.591181c4.618711-1.831558 3.981647-4.977059 4.339995-7.963294h15.608057c-0.318532 8.918889-7.485497 15.608057-15.926589 21.899059-3.981647-0.278715-5.056692 2.349172-7.565129 3.543666-4.698344 2.229722-5.454857 5.853021-3.344584 8.759623a12.582005 12.582005 0 0 0 12.422739 3.264951 101.810716 101.810716 0 0 1 12.542189-0.637064h0.398164c-0.477798 3.065868 2.986235 3.145501 5.614123 2.588071 4.220546-0.955595 7.963294-2.588071 6.728983-6.410452l0.875963-1.393576c13.298701-4.459445 13.856132-5.056692 11.108795-14.174664 1.313944-3.981647 4.937242-7.724395 3.981647-11.944941a38.422894 38.422894 0 0 1 21.182363 4.539077 47.779765 47.779765 0 0 0 27.871529 6.450269 124.705187 124.705187 0 0 1 33.326387 1.751924 54.94673 54.94673 0 0 0 29.265106-1.274127 10.630998 10.630998 0 0 1 14.015397 3.941831l-3.663115 0.238899a30.539233 30.539233 0 0 0-23.889882 7.604946l-3.026052 0.398164a152.218368 152.218368 0 0 0-42.364725 4.817793 112.043549 112.043549 0 0 1-20.98328 5.733572 53.752236 53.752236 0 0 0-12.343106 1.313944c2.787153-7.127148 8.640174-13.776499 6.569717-21.77961a219.78692 219.78692 0 0 1-17.718329 18.315577 39.219224 39.219224 0 0 1-31.494829 11.706042 234.359748 234.359748 0 0 1-43.121238-4.73816 91.577883 91.577883 0 0 0-39.497939 3.981647 486.557275 486.557275 0 0 1 51.004899 5.295591 107.504472 107.504472 0 0 0 61.436815-2.747337c2.189906 1.871374 1.393576 3.981647 1.831558 6.171553 0.67688 3.583482 2.229722 4.419628 7.963294 4.618711l7.963294 0.358348 2.229722 0.955596 1.911191 0.637063c-4.977059 4.777977 4.73816 4.379812 5.932654 7.56513h-23.292635A1195.529357 1195.529357 0 0 1 336.090831 366.311533q-55.743059-9.914301-110.052725-24.646396a405.650206 405.650206 0 0 1-65.458279-25.761256l-8.839256-3.981648-1.672292-3.742748c10.909713 0.398165 20.346217 4.618711 31.096664 5.375224a9.834668 9.834668 0 0 0 1.433393 0.756513h0.716696l-2.229722-0.557431a64.582316 64.582316 0 0 0-22.695389-10.352282c-16.762734-6.251186-25.84089-15.408974-26.438136-28.389144a40.015553 40.015553 0 0 1 4.897426-19.231356c1.194494-2.548254 0.995412-2.627887-2.428805-4.339995l-0.557431-3.623299c6.052104-2.826969 8.679991-7.485497 13.418151-11.068979A354.565674 354.565674 0 0 1 207.722529 207.045649a160.818726 160.818726 0 0 1 28.42896 10.352282 17.04145 17.04145 0 0 0 15.408974 7.963295l-1.751924 1.951007z m-82.658993 18.713741l-7.206781-8.281826c-0.358348 3.464033-1.194494 7.087332 7.206781 8.281826z"
          fill="#DE2614" p-id="15638"></path>
    <path d="M1063.139591 271.508515c2.747336 3.185318 0 6.052104-1.911191 8.600358a153.930477 153.930477 0 0 1-75.651294 54.707831 92.812194 92.812194 0 0 1-26.199238 7.963294 145.847733 145.847733 0 0 1-34.043083-11.944941 25.681624 25.681624 0 0 0-13.059802-11.706042 58.211681 58.211681 0 0 1-2.508438-24.805662 38.980325 38.980325 0 0 1 15.528424-15.687689 112.083366 112.083366 0 0 1 22.735204-12.582005 64.741582 64.741582 0 0 1 40.891516-1.552842c3.065868 0.915779 6.967882 1.313944 7.366047-1.990824a35.834824 35.834824 0 0 1 10.431916-18.634108 51.283615 51.283615 0 0 0 9.157788-1.911191 45.072245 45.072245 0 0 1 39.816471 3.304767l3.503849 2.70752 7.405864 5.375224-3.464033 6.131736c-18.196127 3.3844-8.839257-8.361459-14.533012-11.944941a5.295591 5.295591 0 0 0-3.3844 4.459445c0 6.291002-5.932654 6.370635-12.98017 6.291002a23.053737 23.053737 0 0 0-14.254296 1.552842l18.634108 5.096509-13.856132 7.684579a15.01081 15.01081 0 0 0 7.485497-0.79633c3.105685-0.597247 6.7688-2.03064 9.078155-0.199082s-1.075045 3.583482-1.672291 5.454856c-1.075045 3.344584-5.614122 6.171553-3.981648 10.392099 10.790264-5.176141 10.750447-18.435026 29.504005-15.926588z m-66.612956 10.869897a123.43106 123.43106 0 0 0-13.019986 7.724395c-5.375224 4.300179-7.963294 2.428805-11.188428-1.35376a38.303445 38.303445 0 0 0-10.750447-10.272649 18.196127 18.196127 0 0 0 1.513025 11.666226c1.712108 5.136325 0.238899 7.246598-8.480908 6.291002a35.834824 35.834824 0 0 0-15.647873-0.358348 179.174119 179.174119 0 0 0 16.683101 7.286414c6.529901 2.229722 6.490085 5.016875 4.300179 9.078156-1.632475 3.105685-6.291002 6.012287-3.065868 10.790263 3.464033-3.264951 6.171553-5.892838 9.038339-8.480908 5.853021-5.176141 8.242009-4.897426 12.303289 1.154678 2.150089 3.065868 1.831558 7.166965 7.963295 9.675402a73.700288 73.700288 0 0 0-1.791742-11.068979c-1.35376-4.300179 0.796329-5.733572 7.206782-6.012287a113.83529 113.83529 0 0 0 29.066023-3.981647c-9.436504-1.234311-18.992457-2.03064-28.508593-2.468621-5.614122-0.238899-7.047515-1.274127-3.981647-4.698344a35.436659 35.436659 0 0 0 8.520725-14.851544z"
          fill="#763103" p-id="15639"></path>
    <path d="M925.454234 330.476709a146.166265 146.166265 0 0 0 34.0829 11.944941c-2.189906 0.517614-0.995412 0.955595 0 1.393577-0.437981 0.318532-0.756513 0.796329-1.313944 0.955595a574.113695 574.113695 0 0 1-70.554787 17.957228c-19.908235 2.986235-39.577572 6.728984-59.047826 10.790264a498.104052 498.104052 0 0 1-72.067812 7.963294c-21.10273 1.194494-41.926744 4.220546-63.06929 4.618711-37.387666 0.796329-74.815149 1.114861-112.202816-0.756513-14.612645-0.67688-29.265106-1.513026-43.798118-2.229722-4.618711-2.03064 1.114861-3.3844 0.716697-5.136325 10.710631-0.398165 19.908235-4.897426 30.57905-5.295591h98.386499c2.667704 0 7.007699 1.433393 7.485497-2.269539H690.37779a64.622132 64.622132 0 0 0 29.145657-2.787153 62.591492 62.591492 0 0 1 30.260518-4.977059c6.490085 0.318532 13.059802 0 19.589703 0s12.30329 0.358348 18.315577 0c7.087332-0.437981 9.954118-3.981647 6.689167-7.963294-2.070456-2.548254-1.274127-5.016875-1.552842-7.565129 11.387511 2.588071 23.451901 2.70752 35.038494 4.61871a257.612567 257.612567 0 0 1 30.220702 3.981648 19.470254 19.470254 0 0 0 18.474842-2.787153c12.343106-8.640174 22.297224-18.474843 33.485652-27.87153 7.405864-0.955595 9.914301 3.981647 15.528424 5.494673z m-100.138424 28.628043a48.655728 48.655728 0 0 0-28.110429 3.543665 149.550665 149.550665 0 0 1-26.199237 6.967883c-9.436504 1.552842-19.151723 2.428805-28.628043 3.981647-19.032273 2.866786-20.107318 3.264951-25.641807 6.609534a392.431138 392.431138 0 0 0 108.659149-21.023097z"
          fill="#DE2614" p-id="15640"></path>
    <path d="M133.823159 247.658449l0.55743 3.583483a5.255774 5.255774 0 0 1-0.517614 1.91119c-15.926588 21.461078-11.944941 35.357026 14.254297 51.442881 1.672292 0.995412 1.552842 2.309355 1.911191 3.583482l1.672291 3.742748a48.576095 48.576095 0 0 1-30.817948-33.684734 32.649506 32.649506 0 0 1 12.940353-30.57905z"
          fill="#C96332" p-id="15641"></path>
    <path d="M537.960339 378.256474c0.398165 1.751925-5.335407 3.065868-0.67688 5.136325q-27.87153 0-55.743059-2.388988h23.252819c-1.194494-3.225134-10.909713-2.826969-5.932654-7.604946A47.023252 47.023252 0 0 0 524.422739 378.256474h13.5376z"
          fill="#A55711" p-id="15642"></path>
    <path d="M1063.139591 269.238977l-7.963294-3.583483a11.944941 11.944941 0 0 1 9.874485-3.981647c-0.915779 2.468621 2.309355 5.41504-1.990824 7.44568zM959.616766 344.014309c-1.075045-0.437981-2.309355-0.875962 0-1.393576a3.742748 3.742748 0 0 1 0.398165 0.915778s0 0.318532-0.318532 0.477798z"
          fill="#763103" p-id="15643"></path>
    <path d="M443.913835 305.75068h-15.608057c-9.516137-10.591181-18.95264-21.261995-28.628043-31.853176a9.595769 9.595769 0 0 0-6.370635-3.981647 9.715219 9.715219 0 0 0-7.366047 1.751924c-6.171553 3.464033-11.347694 7.565129-17.04145 11.307878l-2.787153 0.517614-1.513025-2.269539c0.716696-4.379812 6.370635-5.972471 8.67999-9.834668a380.088032 380.088032 0 0 0 17.280349-41.40913c9.993934-22.137958 22.814838-43.360137 32.689322-65.577727 11.944941-26.955751 26.796485-53.115172 40.413718-79.632942a361.772455 361.772455 0 0 1 38.263629 9.277237c3.264951 0.67688 7.684579 0.398165 10.392099 2.986236-4.618711 6.808617 0.995412 12.940353 2.787153 19.151722a346.960728 346.960728 0 0 0 32.49024 75.969827 719.563263 719.563263 0 0 1 43.121238 88.193483 133.225912 133.225912 0 0 0 17.280348 28.229878 17.240532 17.240532 0 0 1 4.459445 11.546776c-2.747336 5.932654-10.073567 7.485497-15.926588 10.27265a10.033751 10.033751 0 0 0-5.773388-5.494673 9.914301 9.914301 0 0 0-7.963295 0.557431 47.182518 47.182518 0 0 1-29.265106 1.513025 107.74337 107.74337 0 0 0-33.326386-2.03064 42.444358 42.444358 0 0 1-27.87153-7.525313 33.844 33.844 0 0 0-21.142546-5.29559l-3.464033-1.990824c-2.588071-7.326231-10.471732-2.747336-15.647873-4.300179a6.171553 6.171553 0 0 0-5.97247-3.065868c-2.110273 0-1.154678 1.831558-1.831558 2.866786z"
          fill="#A55711" p-id="15644"></path>
    <path d="M596.371102 330.476709c6.012287-2.349172 13.298701-3.702932 15.926588-8.759624a22.735205 22.735205 0 0 0 9.237422-4.220546c3.981647-2.349172 6.291002-5.614122 10.352282-7.963294a70.156622 70.156622 0 0 1 36.352438-4.977059c0 2.229722 0.437981 4.618711 5.176141 3.981647a150.346994 150.346994 0 0 1 38.70161 6.7688c2.986235 0.437981 2.508438 2.070456 2.388988 3.702932-0.398165 7.565129 6.450268 10.909713 19.032273 9.237422a18.833191 18.833191 0 0 0 9.635586 2.269538A57.932965 57.932965 0 0 1 785.140991 346.403297a6.529901 6.529901 0 0 0 1.075044 5.056692c4.977059 6.7688 3.543666 7.963294-7.485496 8.600358-3.344584 0-8.202193-1.712108-9.555953 2.349172-6.529901 0-13.099619 0.318532-19.589704 0a62.591492 62.591492 0 0 0-30.260518 4.977058 64.502683 64.502683 0 0 1-29.10584 2.787153c-3.424217-4.73816-9.874485-1.552842-14.732094-2.58807a45.151878 45.151878 0 0 0-6.529901-0.875963 379.928766 379.928766 0 0 1-77.005055-9.436503c-15.408974-2.946419-27.672447-5.693755-26.199238-18.474843l2.986235-0.398164c8.361459-1.990824 19.07209-0.597247 23.889883-7.644763z"
          fill="#318202" p-id="15645"></path>
    <path d="M733.777743 328.286803c-12.582005 1.632475-19.430438-1.712108-19.032273-9.237421 0-1.552842 0.597247-3.225134-2.388988-3.702932a148.634886 148.634886 0 0 0-38.70161-6.728984c-4.777977 0.398165-4.977059-1.951007-5.176141-4.180729a77.681935 77.681935 0 0 1 17.718329-31.853177 52.11976 52.11976 0 0 1 44.554631-11.427327 349.747881 349.747881 0 0 1 34.202349 7.565129l17.678513 8.640175c-0.955595 5.614122 6.330819 9.555953 6.848433 14.851543-5.813205 3.981647-10.790264-1.990824-16.364569-0.637063a36.989502 36.989502 0 0 0-31.853177 4.260362 14.095031 14.095031 0 0 0-13.975582 4.220546c-2.229722 2.508438-1.075045 5.096508 2.866786 6.808617a62.949841 62.949841 0 0 0 3.981647 21.341628zM712.754647 280.984836c1.552842 2.548254 2.03064 6.569718 8.480908 7.087331 2.946419 0.238899 3.065868-2.150089 2.428805-3.503849-1.313944-3.264951-1.911191-7.326231-7.684579-8.24201-3.264951-0.398165-3.065868 2.269539-3.225134 4.658528z m-14.612645 22.257407c2.03064-1.274127 7.246598 1.274127 7.32623-2.15009s-4.419628-4.260362-8.998522-4.300179-7.525313 1.154678-7.246598 3.981648c0.398165 3.663115 5.534489 1.632475 8.91889 2.548254z m72.625243-20.266584c0-1.791741-0.637064-3.065868-2.986236-3.065868a13.577417 13.577417 0 0 0-11.228244 5.494673c-1.114861 1.393576 1.712108 2.189906 3.663115 2.070456a12.741271 12.741271 0 0 0 10.431915-4.459444z"
          fill="#F1C24E" p-id="15646"></path>
    <path d="M700.809705 48.05848c5.773388 3.185318 13.338518 5.255774 13.219069 12.30329-4.937242 0-3.981647 2.508438-3.185318 4.618711 1.791741 4.180729 3.981647 8.242009 6.450268 13.019986 2.826969-6.928066-1.831558-11.944941-3.225134-17.598881 10.193017-0.836146 10.551365 5.136325 11.745859 10.511549a131.752702 131.752702 0 0 1-49.53169 37.188584 99.222646 99.222646 0 0 0-14.652461 8.79944 22.735205 22.735205 0 0 1-18.833191 3.3844 60.401586 60.401586 0 0 1-38.303445-21.699977c-1.990824-5.136325 4.73816-8.600358 3.981647-13.457967 15.56824 5.295591 15.130259 19.908235 26.438137 29.424372 1.194494-7.724395-3.782565-12.422739-7.047516-17.758146a17.320165 17.320165 0 0 1 19.908236 13.776499c0.437981 1.433393 0.517614 3.583482 3.065868 3.065868 3.464033-0.597247 1.871374-2.747336 1.114861-4.339995-1.433393-2.826969-3.981647-6.012287 1.951007-7.366047s3.981647 3.264951 5.255775 5.176141 2.110273 3.981647 5.454856 2.866786 1.672292-2.747336 0.995412-4.618711c-1.791741-4.897426-2.826969-9.993934-5.016875-14.811727a26.915934 26.915934 0 0 0-20.226768-15.488607c3.663115 5.614122 12.382922 9.237421 10.392099 17.160899-9.038339-1.672292-11.944941-7.963294-16.523835-12.422739-0.437981-0.238899-1.075045-0.756513-1.194494-0.67688-1.075045 0.557431-0.398165 0.995412 0.318531 1.393576-0.477798 1.672292 0.199082 5.215958-3.981647 2.15009-2.468621-1.831558-5.176141-3.981647-5.136324-7.127149l10.232833-6.251186c2.826969-4.260362 11.666226-3.065868 13.059802-8.640174L672.938176 49.372424c0.756513 0.796329 1.313944 1.871374 2.349171 2.388988a53.274438 53.274438 0 0 1 29.066024 28.309511 3.185318 3.185318 0 0 0 3.225134 2.428805c3.105685-0.358348 2.627887-2.508438 2.70752-4.260363 0.517614-12.542188-20.863831-28.946574-37.427482-28.747492a25.004744 25.004744 0 0 1 25.60199-3.105684z m-46.386188 12.422739a51.522513 51.522513 0 0 1 27.0752 34.043083 3.623299 3.623299 0 0 0 4.61871 3.105685c2.906602-0.637064 2.468621-2.866786 1.990824-4.618711a45.868575 45.868575 0 0 0-12.582005-22.894471 27.87153 27.87153 0 0 0-21.102729-9.595769z m11.50696-5.773388c7.007699 6.09192 12.542188 10.909713 18.15631 15.647873 6.450268 5.41504 6.410452 12.502372 7.963295 19.111906a3.185318 3.185318 0 0 0 3.782564 2.787153c2.588071-0.318532 2.269539-2.070456 2.468622-3.583482 1.632475-12.343106-14.811727-30.618866-32.410608-33.923633z m11.944941 45.47041a69.400109 69.400109 0 0 1-2.150089-9.794852c-0.637064-8.879073-8.79944-13.856132-15.926589-19.470254a4.777977 4.777977 0 0 0-5.215958-0.995412c-1.951007 0.915779-0.915779 2.189906 0.318532 3.065868a39.816471 39.816471 0 0 1 15.926589 27.87153 3.3844 3.3844 0 0 0 1.35376 2.667703 3.583482 3.583482 0 0 0 2.906602 0.67688c2.866786-0.278715 3.185318-2.189906 2.667704-3.981647zM787.370713 169.857065a35.277393 35.277393 0 0 0 29.10584 5.693755 106.230345 106.230345 0 0 0 16.603469 28.349328 182.399253 182.399253 0 0 1 21.261995 27.035384 55.743059 55.743059 0 0 0 10.750447 12.343106 22.45649 22.45649 0 0 0-13.617233 3.981647 132.947197 132.947197 0 0 0-19.908235 15.926588c-1.632475 1.552842-2.946419 2.826969-3.981647-0.238899a14.373746 14.373746 0 0 0-0.437981-15.687689c-1.951007-3.981647-8.560541-5.932654-11.546777-9.59577a227.192783 227.192783 0 0 1-23.332452-51.761412 50.168753 50.168753 0 0 1-5.096508-16.523836z"
          fill="#F67464" p-id="15647"></path>
    <path d="M410.945797 67.011121c8.998522-2.388988 6.131737-10.431915 11.38751-14.612645l22.45649 23.650984a63.188739 63.188739 0 0 1-5.853021 21.699976Q406.765067 174.555409 374.314643 251.321565a26.677036 26.677036 0 0 1-7.525313 10.909713 30.539233 30.539233 0 0 0-27.115016-23.611168l17.47943-43.121238a20.863831 20.863831 0 0 0 3.981648-8.839256 619.385022 619.385022 0 0 0 29.583637-62.870208 24.208414 24.208414 0 0 0 2.349172-8.321642l2.388989-5.813205a187.376312 187.376312 0 0 0 13.019986-28.468777c1.632475-4.419628 6.689167-8.480908 2.747336-13.617233a1.234311 1.234311 0 0 0-0.278715-0.716696z"
          fill="#763103" p-id="15648"></path>
    <path d="M357.113928 214.690411a33.923633 33.923633 0 0 0-18.634108-2.349171c1.274127-3.065868 6.171553-5.534489 1.552842-9.317055-1.154678-0.915779 2.388988-3.3844 5.375224-3.702931s6.689167-1.114861 7.963294 1.871374a10.670814 10.670814 0 0 0 7.963294 5.932654 16.762734 16.762734 0 0 1-3.981647 7.565129zM363.484563 164.760557c4.419628 0 5.773388 1.513026 5.693756 3.981647 0 3.702932-3.543666 6.171553-8.361459 5.773388-3.304767-0.278715-9.396687-1.751925-8.361459-4.977059s5.972471-4.658527 11.029162-4.897426z"
          fill="#C96332" p-id="15649"></path>
    <path d="M294.084454 203.064002a56.857921 56.857921 0 0 1-16.842367-13.099619c-0.915779-0.756513-3.264951-2.826969 0.318532-3.782565 2.03064-0.557431 3.981647 0 4.300179 1.712108 0.637064 2.826969 4.857609 2.508438 7.087332 3.981648 4.857609 3.065868 7.405864 6.490085 5.136324 11.268061z"
          fill="#318202" p-id="15650"></path>
    <path d="M411.224512 105.115483c3.981647 4.419628-1.114861 7.963294-2.747336 11.706043-9.834668-3.663115-10.113384-5.136325-1.871375-9.237421l4.618711-2.468622zM395.45719 141.229022l-2.428805 5.016876a25.323276 25.323276 0 0 1-6.450269-0.79633c-2.946419-1.313944-3.981647-3.464033-1.35376-5.494673 4.339995-3.464033 7.047515 0 10.232834 1.274127z"
          fill="#C96332" p-id="15651"></path>
    <path d="M308.179485 203.701065a6.410452 6.410452 0 0 1-5.932654 3.981647c-3.742748 0.278715-3.663115-1.871374-3.702932-3.543665s-0.637064-3.981647 3.304767-3.702932a9.078155 9.078155 0 0 1 6.330819 3.26495z"
          fill="#F67464" p-id="15652"></path>
    <path d="M368.700521 136.689945c-3.065868 0-4.618711-1.274127-4.937242-3.225134s1.632475-3.065868 4.61871-2.986236c2.269539 0 5.176141 0 5.215958 1.951007s-1.473209 3.742748-4.897426 4.260363z"
          fill="#C96332" p-id="15653"></path>
    <path d="M251.480831 225.401042a16.922 16.922 0 0 1-15.408975-7.963294 16.484019 16.484019 0 0 1 15.408975 7.963294zM392.431138 124.506105a3.026052 3.026052 0 0 1-1.194494 2.110273 3.065868 3.065868 0 0 1-2.349172 0.517614 5.176141 5.176141 0 0 1-5.136325-3.3844c-0.238899-1.234311 1.274127-2.150089 2.986235-2.110273 2.667704 0 5.016875 0.875962 5.693756 2.866786z"
          fill="#A55711" p-id="15654"></path>
    <path d="M255.701376 227.90948l-6.012287-0.557431 1.751925-1.951007c2.747336 0 3.981647 0.796329 4.260362 2.508438z"
          fill="#A55711" p-id="15655"></path>
    <path d="M808.314177 276.64484a35.31721 35.31721 0 0 0 19.350805-13.219068c0.875962 3.105685 2.189906 1.831558 3.981647 0.238899a130.956373 130.956373 0 0 1 19.908235-15.926589 22.45649 22.45649 0 0 1 13.617233-3.981647 62.790575 62.790575 0 0 1 13.258885 2.747337c9.117972 4.499261 21.062913 6.888249 25.442725 15.050626 0 0.238899 1.712108 0 2.627887 0.278715l8.202193 0.597247c0 1.075045-1.114861 2.468621-0.437981 3.185318 9.038339 9.954118-0.437981 16.643285-9.038339 23.412085-6.808617 5.335407 0.517614 4.618711 4.777977 5.335407a58.211681 58.211681 0 0 0 2.508437 24.805661l-2.388988 6.052104c-11.188428 9.237421-21.142546 19.111906-33.485652 27.871529a19.390621 19.390621 0 0 1-18.474843 2.787153 258.169998 258.169998 0 0 0-30.260517-3.981647 55.743059 55.743059 0 0 0-27.552998-7.963294 12.741271 12.741271 0 0 1-10.591182-3.702932c-2.627887-3.105685 1.791741-4.618711 4.260363-6.529901 7.366047-5.494673 18.116494-8.202193 25.243642-13.856132 2.70752-2.189906 7.44568-3.623299 4.817793-7.286414L800.350883 304.237655l-7.963295-5.176142a6.052104 6.052104 0 0 1-1.672291-5.813204 199.400887 199.400887 0 0 0 18.992456-14.174664c2.03064-1.313944 0.995412-2.110273-1.433393-2.428805z m68.125982 64.42305c0.557431-3.105685-1.951007-4.618711-5.41504-4.499261-5.136325 0.238899-10.790264 1.075045-11.546777 5.454856-0.597247 3.623299 2.747336 5.614122 7.963294 5.853022 7.604946 0.318532 7.047515-3.981647 8.79944-6.808617z m5.97247-62.352593c0-3.344584-2.388988-4.817793-6.7688-4.618711s-8.640174 0.955595-8.202193 4.937242c0.398165 3.344584 3.185318 5.215958 8.202193 5.215958 5.892838 0 6.291002-2.946419 6.7688-5.534489z m-47.779765 0.796329c-4.339995 0.716696-6.689167 2.627887-6.450268 5.614123s3.185318 5.454857 7.963294 5.494672c5.853021 0 6.171553-3.543666 6.330819-6.131736s-3.464033-4.459445-7.963294-4.977059z m63.148923 39.816471c-0.875962-3.065868-3.663115-4.459445-7.963294-4.499261s-6.848433 1.154678-7.007699 3.981647 1.911191 6.171553 7.44568 6.291002 5.494673-3.702932 7.724395-5.932654z m-62.910024 10.073567c-2.508438 0.67688-7.007699 0.517614-6.012287 3.543666a6.251186 6.251186 0 0 0 6.728983 5.494673c4.578894 0 6.052104-1.831558 6.091921-4.618711s-2.070456-4.339995-6.649351-4.419628z"
          fill="#F1C24E" p-id="15656"></path>
    <path d="M831.845711 172.96275a8.759624 8.759624 0 0 1 5.773388-3.981647c0 1.751925 1.234311 3.065868 3.702932 3.3844a24.765845 24.765845 0 0 1 12.30329 6.808616 134.460222 134.460222 0 0 1 26.039972 29.742904c1.672292 2.110273 2.667704 4.618711 7.246598 4.618711 0.915779 3.304767-5.693755 4.459445-4.817793 7.724395a43.32032 43.32032 0 0 0-13.019986 6.291003h-2.309356a225.241776 225.241776 0 0 1-24.964927-32.450424c-4.419628-6.967882-12.30329-13.457967-9.954118-21.938876z"
          fill="#F67464" p-id="15657"></path>
    <path d="M831.805895 172.96275c-2.309355 8.480908 5.534489 14.970993 10.03375 21.978692a228.347461 228.347461 0 0 0 25.004744 32.928221c-1.791741 2.588071 0 4.459445 2.110273 6.689167a120.006843 120.006843 0 0 1 9.356871 11.666226 62.432226 62.432226 0 0 0-13.219069-2.747336 56.97737 56.97737 0 0 1-10.790263-12.343106 182.120538 182.120538 0 0 0-21.222179-27.19465 103.522824 103.522824 0 0 1-16.603469-28.349327z"
          fill="#DE2614" p-id="15658"></path>
    <path d="M869.153744 227.670581a43.798118 43.798118 0 0 1 13.019986-6.291002c2.946419 0 3.981647-1.951007 6.251186-2.946419a25.522358 25.522358 0 0 1 23.889883 1.513026c7.565129 4.897426 11.944941 15.130259 8.401275 19.231355-1.672292 1.831558-3.105685 1.433393-5.375223 0.238899-9.794852-5.136325-23.13337-4.698344-33.246753-9.516137a5.534489 5.534489 0 0 0-3.583483 0c-7.007699 7.127148-6.171553-2.070456-9.516136-2.110273z"
          fill="#7687B5" p-id="15659"></path>
    <path d="M322.075434 244.552765a27.632631 27.632631 0 0 1 17.758146-5.932655 30.539233 30.539233 0 0 1 27.115016 23.611168A26.677036 26.677036 0 0 0 374.314643 251.321565q32.251341-76.805972 64.462867-153.572129a63.188739 63.188739 0 0 0 5.853021-21.699976 34.719963 34.719963 0 0 1 18.873007 8.879073c-13.577417 26.51777-28.389144 52.717008-40.373901 79.632941-9.874485 22.177774-22.735205 43.399953-32.689323 65.537912A370.29318 370.29318 0 0 1 373.120149 271.548332c-2.269539 3.981647-7.963294 5.454857-8.640174 9.834668l-19.310988 12.86072h-1.951007a5.41504 5.41504 0 0 0-1.751925-0.437981c-4.618711-2.388988-10.630998 0-15.090443-2.946419-5.176141-1.751925-4.339995-6.808617-8.242009-9.237421 1.234311-3.981647-1.911191-6.09192-4.817793-8.560541-11.467144-9.874485-11.307878-10.790264 0.477798-20.545299 2.986235-2.468621 7.963294-3.981647 8.281826-7.963294z"
          fill="#F1C24E" p-id="15660"></path>
    <path d="M595.813671 25.402908c0 1.274127 0.238899 3.065868-0.67688 3.702932a9.396687 9.396687 0 0 0-2.229722 13.856132c-11.068979 2.627887-11.347694 10.551365-13.856132 17.359981a87.994401 87.994401 0 0 1-27.87153-0.995411c-12.462555-5.255774-20.943464 3.065868-31.614278 2.906602 14.533012-0.597247 27.473365 8.202193 42.404542 4.220546a9.555953 9.555953 0 0 1 9.237421 3.065868v1.751925a10.431915 10.431915 0 0 0-2.150089 6.569718 505.071934 505.071934 0 0 1-62.989657-5.136325 106.827592 106.827592 0 0 1-43.798118-15.56824c-7.963294-4.937242-7.724395-9.237421-0.517614-14.612645a50.925266 50.925266 0 0 1 20.824014-7.963294 463.861887 463.861887 0 0 1 112.959328-9.197605z"
          fill="#FBEBA0" p-id="15661"></path>
    <path d="M574.910024 69.360292a34.401431 34.401431 0 0 0 5.693755-0.796329c13.935765-4.777977 18.315577-2.667704 21.261996 10.431915a185.783653 185.783653 0 0 1-32.60969-1.274127 10.113384 10.113384 0 0 1 2.15009-6.569717c1.433393-0.199082 2.946419-0.318532 3.424216-1.712109z"
          fill="#7687B5" p-id="15662"></path>
    <path d="M934.41294 251.560463a40.05537 40.05537 0 0 0 14.851544 6.808617 4.499261 4.499261 0 0 0 3.981647 0.716696 49.611323 49.611323 0 0 0 13.736683 0.318532c17.917412 0.995412 25.402908-2.667704 32.251341-15.926588h7.44568a36.113539 36.113539 0 0 0-10.392099 18.634108c-0.437981 3.304767-4.379812 2.906602-7.405863 1.951007a65.299012 65.299012 0 0 0-40.891516 1.552843 113.317676 113.317676 0 0 0-22.735205 12.621821 38.980325 38.980325 0 0 0-15.528424 15.68769c-4.260362-0.716696-11.586593 0-4.777976-5.335408 8.640174-6.7688 18.076678-13.497784 9.038339-23.451901-0.637064-0.716696 0.238899-2.070456 0.437981-3.185318 7.963294-2.428805 12.18384-7.963294 19.908235-10.591181z"
          fill="#DE2614" p-id="15663"></path>
    <path d="M698.619799 46.545455a25.124193 25.124193 0 0 0-25.60199 3.065868l-25.482542 11.307878c-5.295591-6.450268-16.563652-7.485497-21.142546-14.572829a8.679991 8.679991 0 0 0 7.366047-6.131736 26.51777 26.51777 0 0 1 9.755036-12.502372 190.123649 190.123649 0 0 1 51.243798 14.851543c1.831558 1.274127 3.981647 1.831558 3.742748 3.981648zM700.809705 48.05848l-2.388988-1.552842z"
          fill="#FBEBA0" p-id="15664"></path>
    <path d="M630.573451 0.995412c1.393576 0.437981 3.981647 1.313944 6.7688 2.110273s7.525313 0 6.808616 2.866786c-0.915779 3.464033-5.972471 2.667704-9.157788 1.751924a52.557742 52.557742 0 0 0-12.502372-1.075044c-2.349172 0-5.136325-0.477798-5.215958-2.588071s3.065868-1.831558 5.176141-2.110273 4.459445-0.597247 7.963295-0.955595zM626.51217 46.306556c4.618711 7.087332 15.926588 7.963294 21.142547 14.533012-1.433393 5.653939-10.27265 4.379812-13.099619 8.67999-7.286414-7.963294-10.670814-7.963294-16.404386 0-10.193017-0.477798-11.944941-7.963294-15.926589-12.820903a24.765845 24.765845 0 0 1-5.773388-13.577417c2.588071-2.388988 4.260362 0 6.171553 0.756513 1.990824 4.777977 3.981647 9.595769 6.052103 14.33393a6.291002 6.291002 0 0 0 6.928066 3.105684 4.220546 4.220546 0 0 0 2.986236-1.393576 3.981647 3.981647 0 0 0 0.995412-3.145501c0.238899-3.981647 0.557431-7.963294 0.836145-11.944942a8.679991 8.679991 0 0 1 6.052104 1.632476z"
          fill="#7687B5" p-id="15665"></path>
    <path d="M565.831869 338.678902c-1.473209 12.781087 10.790264 15.528424 26.159421 18.514659A380.685279 380.685279 0 0 0 668.956529 366.630065a40.214636 40.214636 0 0 1 6.529901 0.875962l-0.597247 2.747336h-0.437982l-62.073878 1.513026a6.529901 6.529901 0 0 0-0.875962-0.55743 25.761257 25.761257 0 0 0-11.268061-0.955596 62.233144 62.233144 0 0 1-18.235944-0.915778 9.396687 9.396687 0 0 0-11.944941 1.951007l-1.552843 1.35376c-10.790264 0.358348-19.908235 4.857609-30.579049 5.29559h-13.537601a47.102885 47.102885 0 0 1-25.681623-5.016875l-1.871374-0.597247-2.229723-0.995412-7.963294-0.358348c-6.928066-5.41504-7.963294-10.113384-1.114861-12.661638s10.670814-6.649351 16.683101-9.356871a109.495295 109.495295 0 0 0 21.023097-5.733571 154.487907 154.487907 0 0 1 42.285092-4.817793z"
          fill="#94F220" p-id="15666"></path>
    <path d="M345.12917 299.340229l19.510071-10.989346 1.513026 1.951007c-1.433393 2.70752 1.672292 3.503849 4.300179 4.260362a25.72144 25.72144 0 0 1 12.462555 7.963294c6.291002 6.888249 11.944941 14.015398 17.957229 21.062913a9.715219 9.715219 0 0 0 6.012287 4.85761c-2.468621 3.981647-8.879073 2.070456-13.258885 3.981647-9.436504 3.981647-20.346217 6.888249-30.618866 10.193017a226.117739 226.117739 0 0 0-27.035384-21.859243c-4.937242-3.424217-12.781087-3.981647-16.205304-8.679991l2.349172-1.712108 1.35376-0.875962 0.716697-1.274127a42.006377 42.006377 0 0 1 19.908235 8.719807c7.206781 5.574306 14.493195 11.148612 21.699977 16.762734a8.679991 8.679991 0 0 0 8.719807 2.787153 80.389455 80.389455 0 0 0-40.931332-31.853177l7.724395-5.653939a6.848433 6.848433 0 0 1 1.751925 0.358349c-1.154678 2.548254 1.712108 2.906602 3.981647 3.464033a51.124349 51.124349 0 0 1 27.87153 16.205303 45.311144 45.311144 0 0 0 12.74127 11.467144 32.848589 32.848589 0 0 0-15.488607-21.182363 39.537756 39.537756 0 0 0-27.035384-10.073567zM298.663349 321.717085a41.608212 41.608212 0 0 0 11.50696-4.379811 32.848589 32.848589 0 0 1 13.856132 4.459444A206.567851 206.567851 0 0 1 357.512093 346.403297a16.523835 16.523835 0 0 1-25.442725 2.229723 59.087643 59.087643 0 0 0-17.678513-7.963295c-10.392099-3.225134-19.07209-7.127148-14.134848-16.404386 0.318532-0.597247-0.915779-1.552842-1.433392-2.349171zM477.240221 360.418695a107.504472 107.504472 0 0 1-61.436815 2.747337 476.762423 476.762423 0 0 0-51.044716-5.255775 91.776966 91.776966 0 0 1 39.537756-3.981647 227.352049 227.352049 0 0 0 43.121238 4.73816 39.139591 39.139591 0 0 0 31.494829-11.706042 226.356637 226.356637 0 0 0 17.718329-18.315577c2.070456 7.963294-3.981647 14.692278-6.569717 21.77961-2.787153 3.981647-9.237421 6.171553-12.820904 9.874485z"
          fill="#F67464" p-id="15667"></path>
    <path d="M368.859787 289.863909c5.733572-3.185318 10.94953-6.728984 17.081266-9.675403a10.670814 10.670814 0 0 1 13.736682 1.990824c9.675402 9.038339 19.111906 18.196127 28.628043 27.274282 0 2.946419 0.278715 6.052104-4.339995 7.963294a48.098297 48.098297 0 0 0-27.433549-27.871529 209.792985 209.792985 0 0 1 27.393732 27.871529l-15.687689 10.591182c0.796329-10.193017-8.600358-17.638697-15.408975-25.721441a35.834824 35.834824 0 0 0-23.889882-12.422738zM149.988646 308.179485c-0.318532-1.234311-0.238899-2.588071-1.871374-3.583482-26.318687-15.926588-30.141069-29.941986-14.294113-51.403064a5.295591 5.295591 0 0 0 0.55743-1.911191c3.424217 1.751925 3.623299 1.791741 2.388989 4.339996a40.135003 40.135003 0 0 0-4.897426 19.111906c0.637064 13.019986 9.675402 22.137958 26.438137 28.389143a63.706354 63.706354 0 0 1 22.735204 10.392099c-10.670814-0.875962-20.147134-5.016875-31.056847-5.454856z"
          fill="#F67464" p-id="15668"></path>
    <path d="M455.02263 329.600747a107.504472 107.504472 0 0 1-14.174664 11.268061c-5.016875 2.946419-2.189906 3.981647 1.194495 5.255774a119.728128 119.728128 0 0 0-12.542189 0.637064 12.502372 12.502372 0 0 1-12.422739-3.264951c-2.110273-2.906602-1.35376-6.490085 3.344584-8.759624 2.508438-1.194494 3.583482-3.981647 7.565129-3.543666a37.626565 37.626565 0 0 0-4.73816 5.614123c-0.875962 1.552842-5.614122 2.826969-2.110273 4.817793a11.228245 11.228245 0 0 0 9.954118-0.278716c6.131737-2.588071 7.963294-7.326231 11.944941-10.790263a40.692433 40.692433 0 0 0 3.583483-3.981647c0.398165 3.981647 3.742748 3.981647 8.242009 2.866786z"
          fill="#C96332" p-id="15669"></path>
    <path d="M477.240221 360.418695c3.543666-3.702932 9.993934-5.733572 12.86072-9.874485a53.752236 53.752236 0 0 1 12.343106-1.313943c-6.052104 2.70752-10.193017 6.848433-16.722918 9.35687s-5.813205 7.286414 1.154678 12.661638c-5.614122 0-7.166965-0.995412-7.963294-4.61871-0.398165-2.070456 0.358348-4.300179-1.791742-6.21137zM592.66817 330.675791c-4.777977 7.047515-15.488607 5.653939-23.889882 7.604946a30.778132 30.778132 0 0 1 23.889882-7.604946z"
          fill="#A55711" p-id="15670"></path>
    <path d="M455.619877 340.988257a52.000311 52.000311 0 0 1 11.108796-14.21448c2.627887 9.157788 2.189906 9.755035-11.108796 14.21448z"
          fill="#C96332" p-id="15671"></path>
    <path d="M173.042383 246.623221c-8.361459-1.234311-7.565129-4.857609-7.206781-8.281826z" fill="#F67464"
          p-id="15672"></path>
    <path d="M442.400809 346.403297a17.081266 17.081266 0 0 0 12.343106-3.782564c1.35376 3.981647-2.508438 5.454857-6.7688 6.370635-2.548254 0.517614-6.052104 0.517614-5.574306-2.588071z"
          fill="#C96332" p-id="15673"></path>
    <path d="M181.045493 313.634342l2.229723 0.55743c-0.238899 0-0.597247 0.238899-0.716697 0s-0.955595-0.517614-1.433393-0.756513z"
          fill="#F67464" p-id="15674"></path>
    <path d="M494.759468 371.607123l2.229722 0.995412z" fill="#A55711" p-id="15675"></path>
    <path d="M996.526635 282.378412a35.157944 35.157944 0 0 1-8.441092 14.89136c-3.105685 3.424217-1.552842 4.499261 3.981647 4.698344q14.294113 0.637064 28.508593 2.468621a112.083366 112.083366 0 0 1-29.066023 3.981647c-6.410452 0.318532-8.560541 1.751925-7.206782 6.052104a74.01882 74.01882 0 0 1 1.791742 11.029162c-6.171553-2.508438-5.853021-6.529901-7.963295-9.675402-3.981647-6.052104-6.529901-6.291002-12.303289-1.114862-2.906602 2.548254-5.574306 5.215958-9.038339 8.480909-3.185318-4.777977 1.552842-7.724395 3.065868-10.790264 2.189906-3.981647 2.269539-6.848433-4.300179-9.078155-5.454857-1.831558-10.27265-4.539078-16.404386-7.326231a35.834824 35.834824 0 0 1 15.647873 0.358348c8.719807 0.995412 10.193017-1.154678 8.480909-6.291002a18.156311 18.156311 0 0 1-1.552843-11.666226 38.064546 38.064546 0 0 1 10.790264 10.312466c3.185318 3.742748 5.813205 5.614122 11.188428 1.313943a130.040594 130.040594 0 0 1 12.781088-7.963294z"
          fill="#FBEBA0" p-id="15676"></path>
    <path d="M910.005444 324.942219l2.388988-6.052103a25.601991 25.601991 0 0 1 13.059802 11.944941c-5.614122-1.313944-7.963294-6.450268-15.44879-5.693755z"
          fill="#A55711" p-id="15677"></path>
    <path d="M792.387588 299.10133l7.963295 5.136325a15.926588 15.926588 0 0 0-3.105685 1.274127 47.779765 47.779765 0 0 1-1.513026 22.735205 209.593903 209.593903 0 0 0 27.87153-15.68769c2.627887 3.702932-2.110273 5.136325-4.817793 7.286414-7.127148 5.733572-17.837779 8.441092-25.243643 13.895949-2.468621 1.831558-6.888249 3.3844-4.220546 6.529901a12.701454 12.701454 0 0 0 10.551365 3.702932 55.743059 55.743059 0 0 1 27.592814 7.405863c-11.586593-1.911191-23.650984-2.03064-35.038494-4.658527l-7.286414-0.318532a58.012598 58.012598 0 0 0-41.847111-15.926588 19.350805 19.350805 0 0 1-9.635586-2.309355 62.830391 62.830391 0 0 1-3.742748-21.301812c6.330819-2.468621 5.574306-7.963294 11.108795-11.029163a36.989502 36.989502 0 0 1 31.853177-4.379812 28.309511 28.309511 0 0 0 19.51007 7.644763zM825.355626 359.264017A393.267284 393.267284 0 0 1 716.736294 380.247298c5.534489-3.344584 6.609534-3.742748 25.641807-6.609535 9.516137-1.433393 19.231355-2.269539 28.628043-3.981647a153.134147 153.134147 0 0 0 26.199237-6.967882 48.85481 48.85481 0 0 1 28.150245-3.543666z"
          fill="#F67464" p-id="15678"></path>
    <path d="M785.220624 346.403297l7.525313 0.477798c0.278715 2.548254-0.517614 5.056692 1.513026 7.565129 3.304767 3.981647 0.398165 7.485497-6.689168 7.963295-6.052104 0.398165-12.18384 0-18.315576 0 1.35376-3.981647 6.171553-2.189906 9.555953-2.349172 11.029162-0.437981 12.462555-1.831558 7.485496-8.600358a6.450268 6.450268 0 0 1-1.075044-5.056692z"
          fill="#A55711" p-id="15679"></path>
    <path d="M612.456956 371.925655L674.530834 370.29318c-0.477798 3.702932-4.817793 2.229722-7.485496 2.269539h-54.588382a1.632475 1.632475 0 0 1 0-0.875963z"
          fill="#318202" p-id="15680"></path>
    <path d="M612.456956 371.925655a1.473209 1.473209 0 0 0 0 0.836146h-43.798118l1.552843-1.35376h41.409129a4.539078 4.539078 0 0 1 0.915779 0.597247z"
          fill="#A55711" p-id="15681"></path>
    <path d="M674.968816 370.29318l0.597247-2.747337c4.857609 1.075045 11.307878-2.189906 14.732094 2.548255z"
          fill="#8CA322" p-id="15682"></path>
    <path d="M455.02263 329.600747c-4.499261 1.194494-7.963294 0.915779-8.281826-2.986236 1.990824-5.693755 6.012287-11.148612 5.056692-17.280348 5.136325 1.313944 13.059802-2.588071 15.608057 3.702932-6.052104 4.857609-6.251186 11.706042-12.382923 16.563652z"
          fill="#DE2614" p-id="15683"></path>
    <path d="M808.314177 276.64484c2.428805 0.318532 3.464033 1.114861 1.35376 2.468621a199.400887 199.400887 0 0 1-18.992457 14.174664l-1.313943-1.035228c-0.517614-5.295591-7.963294-9.237421-6.808617-14.851544a48.974259 48.974259 0 0 0 13.856132 0.437981 21.023097 21.023097 0 0 0 11.944941-1.194494z"
          fill="#763103" p-id="15684"></path>
    <path d="M712.754647 281.024652c0.199082-2.428805 0-5.176141 3.185317-4.658527 5.813205 0.915779 6.410452 4.977059 7.684579 8.242009 0.557431 1.393576 0.517614 3.981647-2.428805 3.50385-6.370635-0.557431-6.808617-4.499261-8.441091-7.087332zM741.14379 295.955829c-5.534489 2.826969-4.777977 8.560541-11.108795 11.029162-3.981647-1.712108-5.136325-4.300179-2.866786-6.808616a14.055214 14.055214 0 0 1 13.975581-4.220546zM698.102185 303.242243c-3.3844-0.915779-8.560541 1.114861-8.918889-2.548254-0.278715-2.747336 3.065868-3.981647 7.206781-3.981647s9.117972 0.875962 9.038339 4.300178-5.335407 0.875962-7.326231 2.15009zM770.727428 282.975659A12.701454 12.701454 0 0 1 760.534412 287.47492c-1.951007 0-4.777977-0.716696-3.702932-2.070456a13.617233 13.617233 0 0 1 11.068979-5.494673c2.349172 0 3.145501 1.274127 3.026052 3.065868z"
          fill="#A55711" p-id="15685"></path>
    <path d="M789.480986 292.252897l1.313944 1.035228a6.052104 6.052104 0 0 0 1.672291 5.813205 28.269694 28.269694 0 0 1-19.310988-7.485497c5.574306-1.35376 10.551365 4.419628 16.324753 0.637064z"
          fill="#C96332" p-id="15686"></path>
    <path d="M618.190528 69.519558c5.693755-7.963294 9.078155-7.963294 16.36457 0L624.322265 75.651295c-3.981647-0.875962-7.286414-2.150089-6.131737-6.171553z"
          fill="#FBEBA0" p-id="15687"></path>
    <path d="M282.73676 312.001866a83.335874 83.335874 0 0 1-54.548565-16.643284c-2.787153-1.990824-3.981647-3.981647 0-5.972471a66.732405 66.732405 0 0 1 34.64033-6.967883 107.504472 107.504472 0 0 1 26.39832 3.663116c10.232833 3.304767 10.630998 8.242009 9.874485 14.21448 0 1.313944-0.437981 2.627887-0.637064 3.981647zM245.946341 246.503772c8.759624 0 17.519247-0.358348 26.278871 0 10.392099 0 14.851544 3.663115 14.771911 10.869896s-4.618711 10.073567-14.771911 10.27265A103.12466 103.12466 0 0 1 223.808383 262.390544l0.318532-10.790264c3.782565-0.955595 9.755035 2.150089 11.347694-2.787153a11.666226 11.666226 0 0 0 10.27265-2.189906z"
          fill="#F1C24E" p-id="15688"></path>
    <path d="M322.075434 256.816238c-0.517614 3.503849-5.295591 4.777977-8.281826 6.888249-11.944941 8.361459-11.944941 9.237421-0.477798 17.59888 2.866786 2.150089 6.012287 3.981647 4.817793 7.326231a226.55572 226.55572 0 0 0-21.421261-10.471732c-1.313944-0.398165-3.623299-1.194494-2.110273-2.309355 8.679991-6.330819 11.228245-16.36457 25.442725-19.350805z"
          fill="#FBEBA0" p-id="15689"></path>
    <path d="M333.781476 304.715452c-2.906602-0.477798-5.016875 1.951007-7.963294 0.995412v-6.7688a0.796329 0.796329 0 0 0 0-1.194494 4.539078 4.539078 0 0 0 0.716696-1.194494c4.459445 2.428805 10.471732 0.517614 15.090443 2.508437z"
          fill="#DE2614" p-id="15690"></path>
    <path d="M224.126915 251.60028l-0.318532 10.750447c-4.300179-0.517614-7.405864-2.229722-7.44568-5.136325s3.185318-4.977059 7.963294-5.614122zM282.73676 312.001866l15.926589-7.963294c-0.238899 7.166965-7.684579 7.963294-15.926589 7.963294zM235.514426 248.733494c-1.552842 4.937242-7.604946 1.831558-11.387511 2.787153 1.951007-4.260362 7.44568-2.03064 11.387511-2.787153zM245.946341 246.503772a11.62641 11.62641 0 0 1-10.272649 2.150089c1.951007-3.981647 6.609534-1.911191 10.272649-2.150089z"
          fill="#FBEBA0" p-id="15691"></path>
    <path d="M325.658916 297.74757a0.836146 0.836146 0 0 1 0.278715 0.597247 0.915779 0.915779 0 0 1-0.278715 0.597247l-0.716697-0.915779z"
          fill="#F1C24E" p-id="15692"></path>
    <path d="M333.144412 245.548176c-3.105685 0-2.787153-1.672292-2.866785-3.065868s1.114861-3.424217 3.981647-3.663115 3.981647 1.313944 4.260362 2.826969c0 2.189906-1.990824 3.464033-5.534489 3.981647zM331.750836 216.482153c2.627887 0.597247 5.574306 0.836146 5.574306 3.105684 0 1.35376-1.234311 2.548254-3.543666 2.667704-3.145501 0-4.897426-1.075045-5.215958-3.065868-0.199082-1.393576 1.154678-2.309355 3.185318-2.70752z"
          fill="#F67464" p-id="15693"></path>
    <path d="M823.96205 312.559297a210.071701 210.071701 0 0 1-27.87153 15.68769 48.018664 48.018664 0 0 0 1.552843-22.775022 15.050626 15.050626 0 0 1 3.065868-1.23431z"
          fill="#FF9C00" p-id="15694"></path>
    <path d="M876.559608 341.107707c-1.791741 2.747336-1.274127 7.127148-8.879073 6.808616-5.375224-0.238899-8.679991-2.229722-7.963294-5.853021 0.716696-4.379812 6.370635-5.215958 11.50696-5.454857 3.503849 0 6.012287 1.393576 5.454856 4.499262zM882.412629 278.715297c-0.517614 2.588071-0.875962 5.614122-6.7688 5.574306-5.056692 0-7.963294-1.871374-8.202193-5.215958-0.477798-3.981647 3.981647-4.618711 8.202193-4.937242s6.728984 1.234311 6.7688 4.578894zM834.752314 279.631076c4.300179 0.477798 7.963294 1.871374 7.684578 4.897425S841.919278 290.660238 836.185707 290.660238c-4.618711 0-7.604946-2.269539-7.963295-5.494673s2.189906-4.857609 6.529902-5.574306zM897.980869 319.367914c-2.229722 2.229722-2.150089 6.012287-7.724395 5.932654s-7.604946-2.787153-7.44568-6.291003 2.826969-3.981647 7.007699-3.981647 7.246598 1.433393 8.162376 4.499261zM834.991212 329.441481c4.618711 0 6.728984 1.513026 6.728984 4.459444S840.167354 338.440003 835.628276 338.440003a6.370635 6.370635 0 0 1-6.649351-5.534489c-0.955595-3.026052 3.543666-2.866786 6.012287-3.543666z"
          fill="#FF9C00" p-id="15695"></path>
    <path d="M611.580994 371.328408h-41.40913a9.356871 9.356871 0 0 1 11.944941-1.951007 62.233144 62.233144 0 0 0 18.235944 0.875962 26.995567 26.995567 0 0 1 11.268061 0.955596z"
          fill="#FF9C00" p-id="15696"></path>
    <path d="M1042.554475 309.573062c-11.387511 6.569718-21.381445 15.289525-33.206936 21.023096a357.034295 357.034295 0 0 1-43.240688 16.961817c-1.075045 0.358348 1.114861 7.127148 0.955596 8.242009-29.862353 198.724007-182.638152 368.859787-376.424917 399.080489q16.24512 1.274127 32.649506 1.23431c255.781009 0 440.967416-227.431682 446.422273-477.797651 0.039816-1.672292-10.551365 21.739793-27.154834 31.25593zM1049.601991 295.916012l8.441092-9.436503"
          fill="#FF9C00" p-id="15697"></path>
    <path d="M939.389999 989.160588L872.02053 754.12396c0-0.637064-0.637064-1.234311-0.637063-1.791741s-0.637064-1.234311-0.637064-1.871374l-0.55743-0.557431c-0.637064-0.597247-0.637064-1.791741-1.194494-2.428805a4.459445 4.459445 0 0 1-1.234311-2.388988l-1.831558-1.831558-1.791741-1.831557c-0.597247-0.597247-1.194494-1.234311-1.791741-1.234311a3.424217 3.424217 0 0 0-2.428805-1.194494c-0.637064-0.597247-1.234311-0.597247-2.428805-1.194494-0.597247-0.597247-1.234311-0.597247-2.428804-1.194494-0.637064 0-1.871374-0.637064-2.428805-0.637064s-1.831558-0.597247-2.428805-0.597247h-7.286414a3.663115 3.663115 0 0 0-2.388988 0.597247H840.167354c-0.637064 0-1.234311 0.637064-1.831558 0.637064a2.189906 2.189906 0 0 0-1.831558 0.597247 603.418617 603.418617 0 0 1-68.962127 25.482541l-1.035229 0.318532 64.661949 226.157555a24.925111 24.925111 0 0 1 0.875963 5.056692 26.159421 26.159421 0 0 1-19.032274 26.876118 32.052259 32.052259 0 0 1-7.286414 1.23431h108.300801a32.052259 32.052259 0 0 0 7.286414-1.23431 26.159421 26.159421 0 0 0 18.076678-31.93281z"
          fill="#29AECC" p-id="15698"></path>
    <path d="M221.180496 468.400964c25.641807 0 25.681624-39.816471 0-39.816471s-25.641807 39.816471 0 39.816471zM232.568007 522.232833A276.167043 276.167043 0 0 0 302.644996 594.340462c8.839257 6.291002 22.098141 1.473209 27.234466-7.166965 5.972471-9.914301 1.592659-21.023097-7.127148-27.234466a223.250953 223.250953 0 0 1-55.74306-57.773699c-14.174664-21.222179-48.655728-1.313944-34.361614 19.908235z"
          fill="#FFFFFF" p-id="15699"></path>
</svg>