<?xml version="1.0" standalone="no"?><!DOCTYPE svg PUBLIC "-//W3C//DTD SVG 1.1//EN"
        "http://www.w3.org/Graphics/SVG/1.1/DTD/svg11.dtd">
<svg t="1735103194166" class="icon" viewBox="0 0 1221 1024" version="1.1" xmlns="http://www.w3.org/2000/svg" p-id="6345"
     xmlns:xlink="http://www.w3.org/1999/xlink" width="238.4765625" height="200">
    <path d="M1181.888 859.328l-148.8 0c-0.192 0-0.448-0.064-0.64-0.064l-818.752 0c-0.192 0-0.448 0.064-0.64 0.064l-148.8 0c-21.312 0-38.528 26.24-38.528 58.56s17.28 58.56 38.528 58.56l90.368 0c11.84 23.296 33.856 39.04 59.072 39.04l818.688 0c25.28 0 47.296-15.744 59.072-39.04l90.304 0c21.312 0 38.528-26.24 38.528-58.56s-17.216-58.56-38.528-58.56zM1037.76 274.304c5.184-53.888 92.416-47.168 92.416-94.272s-60.224-112.256-103.232-100.992c-43.008 11.2-10.432 80.832-36.224 148.16-76.8 79.104-81.216 37.632-144.448 117.056l0-18.944-117.76 136.128c0 0 58.112-103.104 120.384-159.168 6.528-31.616 23.232-113.216 23.232-122.24 0-11.2 86.016-44.864 77.376-100.992s-77.568-101.056-103.232-67.392c-25.664 33.728-15.616 128-51.584 168.384-86.272 48.96-120.064 94.464-231.296 174.08-74.624 10.688-186.176 41.28-259.008 129.024-103.232 134.72-129.024 303.104-129.024 303.104l0 33.664 851.584 0c123.136-255.936-49.408-319.168 10.752-545.6z"
          fill="#FF9C00" p-id="6346"></path>
</svg>