<?xml version="1.0" standalone="no"?><!DOCTYPE svg PUBLIC "-//W3C//DTD SVG 1.1//EN"
        "http://www.w3.org/Graphics/SVG/1.1/DTD/svg11.dtd">
<svg t="1735103493123" class="icon" viewBox="0 0 1024 1024" version="1.1" xmlns="http://www.w3.org/2000/svg"
     p-id="14300" xmlns:xlink="http://www.w3.org/1999/xlink" width="200" height="200">
    <path d="M938.712 221.544h-587.26V177.368h587.26a10 10 0 0 1 10 10v24.176a10 10 0 0 1-10 10zM938.712 147.246H248.568a10 10 0 0 1-10-10V113.07a10 10 0 0 1 10-10h690.144a10 10 0 0 1 10 10v24.176a10 10 0 0 1-10 10z"
          fill="#BF6C0D" p-id="14301"></path>
    <path d="M938.278 197.446H351.452v24.096h586.826c5.762 0 10.434-4.494 10.434-10.04V187.406c0 5.546-4.672 10.04-10.434 10.04zM269.868 123.15c-5.762 0-10.434-4.494-10.434-10.04v-10.04H249c-5.762 0-10.434 4.496-10.434 10.04v24.096c0 5.546 4.672 10.04 10.434 10.04h689.276c5.762 0 10.434-4.494 10.434-10.04v-14.056H269.868z"
          fill="#A56021" p-id="14302"></path>
    <path d="M898.354 527.628c-15.616-82.042-114.428-145.286-234.014-145.286s-218.4 63.244-234.014 145.286h468.028z"
          fill="#FFD551" p-id="14303"></path>
    <path d="M844.616 539.628H484.064a12.002 12.002 0 0 1-11.546-15.264c17.768-62.87 98.442-108.502 191.822-108.502s174.054 45.632 191.822 108.502a11.996 11.996 0 0 1-11.546 15.264z m-342.874-24h325.196c-9.764-18.626-27.292-35.538-50.76-48.682-31.184-17.466-70.902-27.084-111.838-27.084-40.938 0-80.654 9.618-111.838 27.084-23.466 13.142-40.996 30.056-50.76 48.682z"
          fill="#F9BB32" p-id="14304"></path>
    <path d="M789.074 539.628H539.606a11.998 11.998 0 0 1-10.532-17.75c19.746-36.184 74.106-60.496 135.268-60.496s115.522 24.312 135.268 60.496a12.004 12.004 0 0 1-10.536 17.75z m-223.706-24h197.946c-22.092-18.242-59.65-30.244-98.972-30.244s-76.884 12.002-98.974 30.244z"
          fill="#F9BB32" p-id="14305"></path>
    <path d="M577.866 527.766c-15.616-103.408-114.428-183.122-234.014-183.122s-218.4 79.714-234.014 183.122h468.028z"
          fill="#FFD551" p-id="14306"></path>
    <path d="M468.586 539.768H219.118a12.004 12.004 0 0 1-10.032-5.412 12.004 12.004 0 0 1-0.98-11.354c19.272-44.514 75.094-75.604 135.746-75.604s116.474 31.09 135.746 75.604a12.004 12.004 0 0 1-0.98 11.354 12.012 12.012 0 0 1-10.032 5.412z m-228.392-24h207.316c-20.98-26.8-60.708-44.372-103.658-44.372s-82.678 17.572-103.658 44.372z"
          fill="#F9BB32" p-id="14307"></path>
    <path d="M524.126 539.768H163.576a12.002 12.002 0 0 1-11.71-14.626c17.554-78.294 98.296-135.122 191.984-135.122s174.43 56.826 191.984 135.122a12.004 12.004 0 0 1-11.708 14.626z m-344.596-24h328.644C486.764 456 420.308 414.02 343.852 414.02S200.94 456 179.53 515.768z"
          fill="#F9BB32" p-id="14308"></path>
    <path d="M898.354 546.632H109.836c0 145.968 81.206 273.17 201.386 339.934v34.122c0 8.64 7.28 15.646 16.258 15.646h353.106c8.98 0 16.258-7.004 16.258-15.646v-34.054c120.248-66.744 201.51-193.984 201.51-340.002z"
          fill="#FCF9DE" p-id="14309"></path>
    <path d="M336.75 249.362h-13.968c-11.046 0-20-8.954-20-20V107.666c0-11.046 8.954-20 20-20h13.968c11.046 0 20 8.954 20 20v121.694c0 11.048-8.954 20.002-20 20.002zM410.718 207.506h53.968v187.198h-53.968zM390.718 310.91h-13.968c-11.046 0-20-8.954-20-20v-69.714h53.968v69.714c0 11.046-8.954 20-20 20z"
          fill="#FFD551" p-id="14310"></path>
    <path d="M342.524 88.564c-8.244 2.494-14.226 9.902-14.226 18.658v122.582c0 8.756 5.982 16.166 14.226 18.658 8.244-2.492 14.226-9.902 14.226-18.658V107.222c0-8.756-5.982-16.164-14.226-18.658z"
          fill="#F9BB32" p-id="14311"></path>
    <path d="M356.75 255.228c0 10.8 9.098 19.556 20.322 19.556h13.322c11.224 0 20.322-8.756 20.322-19.556v-34.034h-53.968v34.034zM410.718 257.184c0 10.8 9.098 19.556 20.322 19.556h13.322c11.224 0 20.322-8.756 20.322-19.556v-49.678h-53.968v49.678z"
          fill="#F9BB32" p-id="14312"></path>
    <path d="M444.686 249.362h-13.968c-11.046 0-20-8.954-20-20V107.666c0-11.046 8.954-20 20-20h13.968c11.046 0 20 8.954 20 20v121.694c0 11.048-8.954 20.002-20 20.002z"
          fill="#FFD551" p-id="14313"></path>
    <path d="M377.072 291.354v-70.158h-20.322v70.158c0 10.8 9.098 19.556 20.322 19.556h13.322c1.196 0 2.36-0.12 3.5-0.31-9.552-1.598-16.822-9.596-16.822-19.246z"
          fill="#F9BB32" p-id="14314"></path>
    <path d="M390.75 249.302h-13.968c-11.046 0-20-8.954-20-20V107.666c0-11.046 8.954-20 20-20h13.968c11.046 0 20 8.954 20 20v121.636c0 11.046-8.954 20-20 20z"
          fill="#FFD551" p-id="14315"></path>
    <path d="M396.524 88.564c-8.244 2.496-14.226 9.912-14.226 18.676v122.69c0 8.764 5.982 16.18 14.226 18.674 8.244-2.494 14.226-9.91 14.226-18.674V107.24c0-8.764-5.982-16.18-14.226-18.676z"
          fill="#F9BB32" p-id="14316"></path>
    <path d="M898.354 546.632H109.836a390.154 390.154 0 0 0 0.18 11.464c0.09 3.098 0.208 6.188 0.372 9.268 0.006 0.128 0.016 0.254 0.024 0.382 0.164 3.03 0.372 6.05 0.604 9.062l0.13 1.664c0.258 3.16 0.55 6.31 0.884 9.448l0.026 0.23c0.338 3.152 0.72 6.29 1.134 9.418l0.122 0.926a384.556 384.556 0 0 0 5.164 29.584v0.002c23.882 110.992 95.568 204.502 192.75 258.488v34.122c0 8.64 7.28 15.646 16.258 15.646h81.29c-8.978 0-16.258-7.004-16.258-15.646v-34.122c-97.18-53.988-168.866-147.498-192.75-258.488H889.72a387.02 387.02 0 0 0 8.634-81.448z"
          fill="#FFEACF" p-id="14317"></path>
    <path d="M133.992 681.204c23.298 62.566 62.372 117.586 112.454 160.362h515.298c50.082-42.776 89.156-97.798 112.454-160.362H133.992z"
          fill="#FF624B" p-id="14318"></path>
    <path d="M215.284 681.204H133.992c23.298 62.566 62.372 117.586 112.454 160.362h81.29c-50.082-42.776-89.154-97.796-112.452-160.362z"
          fill="#FF4B34" p-id="14319"></path>
    <path d="M914.192 588.964H91.288a16 16 0 0 1-16-16V520.3a16 16 0 0 1 16-16h822.904a16 16 0 0 1 16 16v52.664a16 16 0 0 1-16 16z"
          fill="#FF624B" p-id="14320"></path>
    <path d="M152.514 559.63c-8.98 0-16.258-7.006-16.258-15.646V504.3H91.546c-8.98 0-16.258 7.004-16.258 15.646v53.374c0 8.64 7.278 15.646 16.258 15.646h822.388c8.98 0 16.258-7.006 16.258-15.646v-13.69H152.514z"
          fill="#FF4B34" p-id="14321"></path>
    <path d="M735.464 822.604a12 12 0 0 1-7.36-21.484c45.216-35.052 67.556-100.57 67.778-101.228a12 12 0 0 1 22.766 7.598c-0.988 2.962-24.774 73.012-75.84 112.598a11.94 11.94 0 0 1-7.344 2.516z"
          fill="#FF9079" p-id="14322"></path>
    <path d="M880.424 544.668h-157.16a12 12 0 0 1 0-24h157.16a12 12 0 0 1 0 24z" fill="#FF9079" p-id="14323"></path>
    <path d="M295.922 738.68a32.376 31.154 0 1 0 64.752 0 32.376 31.154 0 1 0-64.752 0Z" fill="#FF4B34"
          p-id="14324"></path>
    <path d="M402.966 788.986m-26.842 0a26.842 26.842 0 1 0 53.684 0 26.842 26.842 0 1 0-53.684 0Z" fill="#FF4B34"
          p-id="14325"></path>
</svg>