<?xml version="1.0" standalone="no"?><!DOCTYPE svg PUBLIC "-//W3C//DTD SVG 1.1//EN"
        "http://www.w3.org/Graphics/SVG/1.1/DTD/svg11.dtd">
<svg t="1735103618190" class="icon" viewBox="0 0 1035 1024" version="1.1" xmlns="http://www.w3.org/2000/svg"
     p-id="17105" xmlns:xlink="http://www.w3.org/1999/xlink" width="202.1484375" height="200">
    <path d="M912.534107 135.245283l-16.348331 86.20029-77.283018 38.64151 84.714078 16.348331 38.641509 77.283019 16.348331-84.714079 77.283019-40.127721-84.714078-14.862119-38.64151-78.769231"
          fill="#F9C97A" p-id="17106"></path>
    <path d="M505.312046 958.606676l225.904209-54.98984 11.889696 47.558781c1.486212 7.43106-2.972424 16.348331-10.403484 17.834543L535.036284 1018.055152c-7.43106 1.486212-16.348331-2.972424-17.834542-10.403483l-11.889696-49.044993z"
          fill="#F39800" p-id="17107"></path>
    <path d="M505.312046 958.606676l1.486212 5.944848 219.959362-53.503628 10.403483 43.100145v1.486212c0 4.458636-2.972424 7.43106-7.431059 8.917271l-196.179971 47.558781h-1.486212c-4.458636 0-7.43106-2.972424-8.917272-7.43106l-11.889695-47.558781-5.944848 1.486212 1.486212 5.944848-1.486212-5.944848-5.944847 1.486212 11.889695 47.558781c2.972424 8.917271 10.403483 14.862119 19.320755 14.862119h4.458635l196.179971-47.558781c8.917271-2.972424 14.862119-10.403483 14.862119-19.320754V951.175617l-13.375907-53.503629-236.307692 57.962265 1.486212 5.944847 7.431059-2.972424z"
          fill="#40220F" p-id="17108"></path>
    <path d="M579.622642 551.384615L732.702467 0l29.724238 5.944848-154.566037 551.384615z" fill="#40220F"
          p-id="17109"></path>
    <path d="M910.334514 35.936604L618.323599 570.764819l-26.083018-14.252773L884.236633 21.698694z" fill="#40220F"
          p-id="17110"></path>
    <path d="M374.525399 621.236575H371.552975c-14.862119 2.972424-28.238026-7.43106-37.155297-19.320755-8.917271 13.375907-26.751814 20.806967-53.503629 25.265602l-2.972423-20.806966c14.862119-2.972424 34.182874-7.43106 38.641509-19.320755 0-1.486212 1.486212-4.458636 1.486212-5.944848-7.43106-11.889695-10.403483-22.293179-11.889695-31.21045-10.403483-16.348331-31.21045-38.641509-65.393324-68.365747l-2.972424-2.972424c-14.862119-13.375907-23.77939-40.127721-11.889695-54.98984 14.862119-16.348331 43.100145-11.889695 84.714078 14.862119 47.558781 29.724238 41.613933 49.044993 26.751815 71.338171-5.944848 8.917271-10.403483 17.834543-10.403484 29.724238 7.43106 10.403483 11.889695 20.806967 13.375907 31.21045 1.486212 2.972424 4.458636 5.944848 7.43106 8.917272 13.375907 17.834543 20.806967 17.834543 20.806967 17.834542 10.403483-2.972424 23.77939-35.669086 34.182873-62.4209l1.486212-2.972423c-8.917271-5.944848-16.348331-11.889695-23.77939-17.834543-10.403483 28.238026-2.972424 62.4209-2.972424 62.4209l-22.293179 4.458635c0-2.972424-8.917271-49.044993 8.917272-84.714078-5.944848-7.43106-10.403483-14.862119-13.375907-23.77939-10.403483-29.724238 4.458636-54.98984 37.155297-69.85196 31.21045-13.375907 57.962264-7.43106 81.741655 4.458636 8.917271-11.889695 19.320755-22.293179 31.21045-32.696662 50.531205-43.100145 75.796807-56.476052 90.658926-46.072569 19.320755 10.403483 8.917271 41.613933-14.862119 111.465893-4.458636 13.375907-11.889695 29.724238-28.238026 35.669085h-1.486212c-17.834543 4.458636-34.182874-8.917271-52.017417-23.77939-5.944848-4.458636-13.375907-10.403483-19.320755-14.862119-4.458636 7.43106-10.403483 16.348331-14.862119 23.77939 49.044993 5.944848 111.465893 23.77939 112.952105 52.017417 1.486212 25.265602-40.127721 35.669086-53.503629 38.641509-32.696662 7.43106-66.879536 2.972424-96.603773-10.403483-16.348331 47.558781-26.751814 75.796807-49.044993 80.255443z m57.962264-93.63135c25.265602 11.889695 54.98984 16.348331 83.227867 10.403483 29.724238-7.43106 35.669086-14.862119 35.669085-16.348331 0-8.917271-40.127721-28.238026-101.062409-34.182873-5.944848 11.889695-11.889695 26.751814-17.834543 40.127721z m-40.127721-28.238026c5.944848 5.944848 13.375907 11.889695 20.806967 16.348331l13.375907-31.21045c-13.375907 1.486212-25.265602 5.944848-34.182874 14.862119z m-145.648766-60.934688l-1.486212 1.486212c-2.972424 2.972424 0 17.834543 8.917271 25.265602l2.972424 1.486212c17.834543 14.862119 38.641509 32.696662 54.98984 52.017417 2.972424-5.944848 5.944848-10.403483 8.917272-16.348331 8.917271-14.862119 13.375907-22.293179-20.806967-44.586357-34.182874-17.834543-49.044993-19.320755-53.503628-19.320755z m242.25254-13.375907c7.43106 5.944848 14.862119 11.889695 22.293178 16.348331 11.889695 8.917271 26.751814 20.806967 32.696662 19.320754 0 0 5.944848-1.486212 11.889695-20.806966 11.889695-34.182874 28.238026-80.255443 23.779391-89.172714 0 1.486212-11.889695 2.972424-62.4209 44.586357-11.889695 10.403483-20.806967 19.320755-28.238026 29.724238z m-80.255443 0c-2.972424 1.486212-7.43106 1.486212-10.403483 2.972424-22.293179 8.917271-31.21045 23.77939-23.779391 43.100145 1.486212 4.458636 2.972424 7.43106 5.944848 11.889695 14.862119-13.375907 34.182874-19.320755 59.448476-19.320755 5.944848-10.403483 11.889695-22.293179 19.320755-32.696662-16.348331-7.43106-32.696662-10.403483-50.531205-5.944847z"
          fill="#E8CDAC" p-id="17111"></path>
    <path d="M86.20029 603.402032c-7.43106 1.486212-13.375907 10.403483-10.403483 17.834543L104.034833 735.674891c41.613933 172.400581 273.46299 263.059507 515.71553 203.611031C862.002903 879.837446 1024 692.574746 980.899855 520.174165l-28.238026-114.438316c-1.486212-7.43106-10.403483-13.375907-17.834543-10.403483l-848.626996 208.069666z"
          fill="#F8B62D" p-id="17112"></path>
    <path d="M86.20029 603.402032l-2.972424-10.403483c-11.889695 2.972424-19.320755 13.375907-19.320754 25.265602 0 1.486212 0 4.458636 1.486212 5.944848l31.21045 126.328011 11.889695-4.458636-4.458636-10.403483-10.403483 2.972424c17.834543 71.338171 66.879536 129.300435 133.759071 169.428157 66.879536 40.127721 153.079826 60.934688 245.224964 60.934688 49.044993 0 99.576197-5.944848 150.107402-17.834543 109.979681-26.751814 203.61103-80.255443 270.490566-147.134978s107.007257-147.134978 107.007257-228.876633c0-19.320755-2.972424-38.641509-7.43106-57.962264l-11.889695 2.972423 2.972424 10.403484 10.403483-2.972424-29.724238-124.8418c-2.972424-11.889695-13.375907-19.320755-25.265602-19.320754-1.486212 0-4.458636 0-5.944848 1.486211l-848.626996 208.069667 1.486212 10.403483 2.972424 10.403483 848.626996-208.069666h1.486212c1.486212 0 2.972424 1.486212 2.972423 2.972424l28.238027 114.438316 10.403483-2.972424-2.972424-10.403483-10.403483 2.972424 2.972424 10.403483c4.458636 17.834543 5.944848 35.669086 5.944847 53.503629 0 74.310595-35.669086 148.62119-99.576197 212.528302-63.907112 63.907112-154.566038 114.438316-260.087083 141.19013-49.044993 11.889695-98.089985 17.834543-144.162554 17.834543-89.172714 0-170.914369-20.806967-234.821481-57.962264-62.4209-37.155298-107.007257-90.658926-123.355588-156.05225l-2.972423-11.889695-25.265603-102.548621v-1.486212c0-1.486212 1.486212-2.972424 2.972424-2.972424l-2.972424-11.889695z"
          fill="#40220F" p-id="17113"></path>
    <path d="M86.20029 603.402032c-7.43106 1.486212-13.375907 10.403483-10.403483 17.834543L104.034833 735.674891c41.613933 172.400581 273.46299 263.059507 515.71553 203.611031C862.002903 879.837446 1024 692.574746 980.899855 520.174165l-28.238026-114.438316c-1.486212-7.43106-10.403483-13.375907-17.834543-10.403483l-848.626996 208.069666z"
          fill="#F8B62D" p-id="17114"></path>
    <path d="M270.490566 694.060958L242.25254 579.622642c-1.486212-7.43106 2.972424-16.348331 10.403483-17.834543L86.20029 603.402032c-7.43106 1.486212-13.375907 10.403483-10.403483 17.834543L104.034833 735.674891c41.613933 172.400581 273.46299 263.059507 515.71553 203.611031 28.238026-7.43106 56.476052-16.348331 81.741654-26.751815-209.555878 23.77939-393.846154-65.393324-431.001451-218.473149z"
          fill="#F39800" p-id="17115"></path>
    <path d="M105.521045 741.619739l878.351234-216.986938-2.972424-10.403483L102.548621 729.730044" fill="#40220F"
          p-id="17116"></path>
    <path d="M945.230769 645.015965c1.486212-2.972424 1.486212-7.43106 1.486212-10.403483 1.486212-10.403483-2.972424-19.320755-13.375907-22.293179-8.917271-2.972424-20.806967 2.972424-22.293178 13.375907 0 2.972424-1.486212 7.43106-1.486212 10.403484-1.486212 10.403483 2.972424 20.806967 13.375907 22.293178 8.917271 2.972424 20.806967-2.972424 22.293178-13.375907zM783.233672 857.544267c59.448476-40.127721 111.465893-92.145138 142.676343-157.538461 10.403483-20.806967-22.293179-40.127721-32.696662-19.320755-28.238026 60.934688-74.310595 107.007257-129.300436 144.162554-17.834543 13.375907 0 46.072569 19.320755 32.696662zM625.69521 532.063861c89.172714-22.293179 176.859216-43.100145 266.031931-65.393324 23.77939-5.944848 13.375907-41.613933-10.403484-35.669086-89.172714 22.293179-176.859216 43.100145-266.03193 65.393324-22.293179 5.944848-11.889695 41.613933 10.403483 35.669086z"
          fill="#FFFFFF" p-id="17117"></path>
    <path d="M352.232221 228.876633l-8.917272 52.017416-47.558781 23.779391 52.017417 10.403483 23.77939 47.558781 10.403484-52.017417 47.55878-25.265602-52.017416-8.917271-25.265602-47.558781M17.834543 227.390421L41.613933 297.24238 0 359.66328l71.338171-22.293178L133.759071 377.497823l-25.265602-69.851959 43.100145-62.4209-71.338171 23.77939-62.4209-41.613933"
          fill="#F9C97A" p-id="17118"></path>
</svg>