<svg t="1752584649363" class="icon" viewBox="0 0 1024 1024" version="1.1" xmlns="http://www.w3.org/2000/svg" p-id="5660" width="200" height="200"><path d="M544 544h160a32 32 0 0 1 0 64h-160v160a32 32 0 0 1-64 0v-160h-160a32 32 0 0 1 0-64h160v-64h-128a32 32 0 0 1 0-64h82.752l-77.248-77.248a32 32 0 1 1 45.248-45.248L512 402.752l109.248-109.248a32 32 0 1 1 45.248 45.248L589.248 416H672a32 32 0 0 1 0 64h-128v64z m-32 416C264.576 960 64 759.424 64 512S264.576 64 512 64s448 200.576 448 448-200.576 448-448 448z m0-64c212.064 0 384-171.936 384-384S724.064 128 512 128 128 299.936 128 512s171.936 384 384 384z" fill="#515151" p-id="5661"></path></svg>