<svg t="1752499653864" class="icon" viewBox="0 0 1024 1024" version="1.1" xmlns="http://www.w3.org/2000/svg" p-id="1858" width="200" height="200"><path d="M512 224c-53.0432 0-96 43.008-96 96v42.6496a96 96 0 1 0 192 0V320c0-53.0432-43.008-96-96-96z m111.104 253.7984a330.8032 330.8032 0 0 1 219.5456 311.552c0 41.216-33.4336 74.6496-74.6496 74.6496H256a74.6496 74.6496 0 0 1-74.6496-74.6496A330.8032 330.8032 0 0 1 400.896 477.7984a159.5392 159.5392 0 0 1-48.896-115.1488V320a160 160 0 0 1 320 0v42.6496c0 45.2096-18.7392 86.016-48.896 115.1488z m-111.104 44.8512a266.6496 266.6496 0 0 0-266.6496 266.7008c0 5.888 4.7616 10.6496 10.6496 10.6496h512a10.6496 10.6496 0 0 0 10.6496-10.6496A266.6496 266.6496 0 0 0 512 522.6496z" fill="#c4bcab" p-id="1859"></path></svg>