<svg t="1752503464390" class="icon" viewBox="0 0 1107 1024" version="1.1" xmlns="http://www.w3.org/2000/svg" p-id="8131" width="200" height="200"><path d="M364.720834 1023.875819H0V0h950.112054v192.23284h-62.09071V62.090711H62.090711v899.694397h302.630123v62.090711z" p-id="8132"></path><path d="M1107.325734 924.4065A330.943488 330.943488 0 0 0 885.413534 621.900558a211.729323 211.729323 0 0 0 103.07058-181.67742c0-116.730536-94.874606-211.605142-211.605142-211.605141s-211.605142 94.874606-211.605142 211.605141a211.729323 211.729323 0 0 0 103.194761 181.67742 330.943488 330.943488 0 0 0-221.9122 302.505942v99.5935h660.769343v-99.5935zM614.946398 440.223138c0-89.286442 72.646131-161.932573 161.932574-161.932573S938.811545 350.936697 938.811545 440.223138s-72.646131 161.932573-161.932573 161.932574-161.932573-72.646131-161.932574-161.932574z m442.706767 534.104293H496.228959v-48.92748c4.594713-152.494785 127.906864-271.957313 280.650013-271.957312s276.0553 119.462527 280.774193 271.957312zM143.181179 191.860296h326.845501v49.672568H143.181179zM143.181179 392.040747h326.845501v49.672569H143.181179zM143.181179 592.34538h326.845501v49.672568H143.181179z" p-id="8133"></path></svg>