<svg t="1752500062300" class="icon" viewBox="0 0 1024 1024" version="1.1" xmlns="http://www.w3.org/2000/svg" p-id="1262" width="200" height="200"><path d="M776.96 256a42.666667 42.666667 0 0 1 41.514667 32.789333l72.896 306.176a149.333333 149.333333 0 1 1-251.285334 114.176L640 704H384a149.333333 149.333333 0 0 1-298.581333 5.12L85.333333 704V490.666667a21.333333 21.333333 0 0 1 21.333334-21.333334h202.666666c80.554667 0 151.168 42.517333 190.656 106.346667a149.333333 149.333333 0 0 0 136.597334-117.098667l0.789333-3.946666c0.896-4.693333 1.578667-9.472 2.005333-14.314667l0.064-0.896 0.021334-0.256 0.128-1.642667 0.298666-4.906666c0.064-1.962667 0.106667-3.946667 0.106667-5.952v-152.362667l0.192 0.213333A21.333333 21.333333 0 0 1 661.333333 256h115.626667zM234.666667 618.666667a85.333333 85.333333 0 1 0 0 170.666666 85.333333 85.333333 0 0 0 0-170.666666z m554.666666 0a85.333333 85.333333 0 1 0 0 170.666666 85.333333 85.333333 0 0 0 0-170.666666z m-64-298.666667a21.333333 21.333333 0 0 0-21.184 18.837333L704 341.333333v85.333334c0 105.728-76.906667 193.493333-177.813333 210.389333 0.277333 0.96 0.512 1.962667 0.768 2.944h127.424a149.333333 149.333333 0 0 1 155.221333-83.968l-57.429333-215.424A27.776 27.776 0 0 0 725.333333 320zM341.333333 533.333333H149.333333l-0.021333 48.128A149.333333 149.333333 0 0 1 369.642667 640L448 640l-0.106667-4.629333A106.666667 106.666667 0 0 0 341.333333 533.333333z m21.333334-362.666666a64 64 0 0 1 64 64v106.666666a64 64 0 0 1-64 64H192a64 64 0 0 1-64-64v-106.666666a64 64 0 0 1 64-64h170.666667z m-21.333334 64h-128a21.333333 21.333333 0 0 0-21.184 18.837333L192 256v64a21.333333 21.333333 0 0 0 18.837333 21.184L213.333333 341.333333h128a21.333333 21.333333 0 0 0 21.184-18.837333L362.666667 320v-64a21.333333 21.333333 0 0 0-21.333334-21.333333z m458.666667-64a32 32 0 0 1 0 64h-149.333333a32 32 0 0 1 0-64h149.333333z" fill="#c4bcab" p-id="1263"></path></svg>