<svg t="1752502541769" class="icon" viewBox="0 0 1024 1024" version="1.1" xmlns="http://www.w3.org/2000/svg" p-id="5312" width="200" height="200"><path d="M681.6 364.8c9.6 0 22.4 0 32 3.2-28.8-131.2-176-227.2-342.4-227.2C185.6 140.8 32 262.4 32 416c0 89.6 51.2 163.2 134.4 217.6l-35.2 96L249.6 672c41.6 9.6 76.8 16 118.4 16h32c-6.4-22.4-9.6-44.8-9.6-67.2 3.2-140.8 131.2-256 291.2-256z m-182.4-89.6c25.6 0 41.6 16 41.6 41.6s-16 41.6-41.6 41.6-51.2-16-51.2-41.6 25.6-41.6 51.2-41.6z m-236.8 83.2c-25.6 0-51.2-16-51.2-41.6s25.6-41.6 51.2-41.6 41.6 16 41.6 41.6-16 41.6-41.6 41.6zM992 617.6c0-131.2-134.4-236.8-288-236.8-163.2 0-288 105.6-288 236.8 0 131.2 128 236.8 288 236.8 35.2 0 67.2-9.6 102.4-16l92.8 48-25.6-80C940.8 755.2 992 691.2 992 617.6zM611.2 576c-16 0-35.2-16-35.2-32s16-32 35.2-32c25.6 0 41.6 16 41.6 32s-16 32-41.6 32z m185.6 0c-16 0-35.2-16-35.2-32s16-32 35.2-32c25.6 0 41.6 16 41.6 32s-16 32-41.6 32z m0 0" p-id="5313"></path></svg>