<?xml version="1.0" standalone="no"?><!DOCTYPE svg PUBLIC "-//W3C//DTD SVG 1.1//EN"
        "http://www.w3.org/Graphics/SVG/1.1/DTD/svg11.dtd">
<svg t="1735293449406" class="icon" viewBox="0 0 1024 1024" version="1.1" xmlns="http://www.w3.org/2000/svg"
     p-id="22480" xmlns:xlink="http://www.w3.org/1999/xlink" width="200" height="200">
    <path d="M854.53846395 649.95171182H155.02271205c-19.81460999 0-36.02656318-16.21195315-36.02656312-36.02656312v-81.05976584c0-19.81460999 16.21195315-36.02656318 36.02656312-36.02656069h699.5157519c19.81460999 0 36.02656318 16.21195315 36.02656313 36.02656069v81.05976584c0 19.81460999-16.21195315 36.02656318-36.02656313 36.02656312z"
          fill="#DA4913" p-id="22481"></path>
    <path d="M93.77755621 502.84324934c-40.22966193 48.03541755-86.46374863 54.94050647-40.22966196 63.94714846s89.76618564 12.30907661 105.07747462 7.20531119c15.31128896-5.40398521 74.1546745-40.83010393 74.15467449-40.83010391s27.92058534 31.82346437 55.54094844 42.63143232c27.92058534 10.50774818 98.77282522 9.00663956 117.38654881-5.40398523 18.61372354-14.11040255 46.23408914-49.5365237 46.23408911-49.53652125l33.92501253 30.02213347 27.92058532 39.02877554h30.92280016l33.92501253-5.40398277 33.92501252-24.91837297v-42.33121009s-18.61372354 44.43276076 49.53652372 56.74183489 111.38212158-3.60265681 105.07747467-30.02213599 3.00221236-48.03541755 3.00221233-48.03541507l83.46153625 60.3444917 58.84338551 12.30907662s77.15688687 26.71970135 58.84338551-9.00664206-46.23408914-65.44825469-46.23408917-65.44825465l-21.61593837-21.31571615-797.38791289 9.00663954-12.30907413 21.01549641z"
          fill="#5CCE41" p-id="22482"></path>
    <path d="M911.58052106 480.32664673c0-123.39097599-180.13281082-217.66048018-402.29661205-217.66048016s-402.29661202 100.27393139-402.29661448 223.66490737"
          fill="#F2A83C" p-id="22483"></path>
    <path d="M865.04621214 679.9738478h-732.54010266c-9.00663956 0-16.51217538-7.5055334-16.51217288-16.51217539s7.5055334-16.51217538 16.51217288-16.51217541h732.54010266c9.00663956 0 16.51217538 7.5055334 16.51217298 16.51217541s-7.5055334 16.51217538-16.51217298 16.51217539z"
          fill="#FFDC48" p-id="22484"></path>
    <path d="M853.03735779 749.02475679h-693.51132469c-18.91394579 0-34.52545453-15.61151119-34.525457-34.52545446s15.61151119-34.52545453 34.525457-34.52545453h693.51132469c18.91394579 0 34.52545453 15.61151119 34.52545448 34.52545453s-15.61151119 34.52545453-34.52545448 34.52545446z"
          fill="#4F210C" p-id="22485"></path>
    <path d="M536.30383014 662.56100822L482.26398542 725.30727027l-62.1458201-53.73962001" fill="#FFDC48"
          p-id="22486"></path>
    <path d="M860.54289116 857.10444379H146.01607002c-11.70863217 0-21.01549395-9.607084-21.01549392-21.0154939v-66.04869666c0-11.70863217 9.30686177-21.01549395 21.01549392-21.01549644h714.52682114c11.70863217 0 21.01549395 9.30686177 21.01549396 21.01549644v66.04869666c0 11.40841239-9.607084 21.01549395-21.01549396 21.0154939z"
          fill="#F2A83C" p-id="22487"></path>
    <path d="M440.23299754 343.72593242h-6.00442716c-3.3024346 0-6.0044272-2.70199262-6.00442721-6.00442715s2.70199262-6.0044272 6.00442721-6.0044272h6.00442716c3.3024346 0 6.0044272 2.70199262 6.00442721 6.0044272s-2.70199262 6.0044272-6.00442721 6.00442715zM329.1510957 352.73257199h-6.00442718c-3.3024346 0-6.0044272-2.70199262-6.0044272-6.00442717s2.70199262-6.0044272 6.0044272-6.00442721h6.00442718c3.3024346 0 6.0044272 2.70199262 6.00442723 6.00442721s-2.70199262 6.0044272-6.00442723 6.00442717zM668.4012259 349.73035965h-6.00442716c-3.3024346 0-6.0044272-2.70199262-6.00442723-6.00442723s2.70199262-6.0044272 6.00442723-6.00442715h6.00442716c3.3024346 0 6.0044272 2.70199262 6.00442723 6.00442715s-2.70199262 6.0044272-6.00442723 6.00442723zM536.30383014 355.73478684h-6.0044272c-3.3024346 0-6.0044272-2.70199262-6.00442717-6.00442719s2.70199262-6.0044272 6.00442717-6.00442723h6.0044272c3.3024346 0 6.0044272 2.70199262 6.00442721 6.00442723s-2.70199262 6.0044272-6.00442721 6.00442719zM452.2418519 403.7702019h-6.00442715c-3.3024346 0-6.0044272-2.70199262-6.00442721-6.00442719s2.70199262-6.0044272 6.00442721-6.00442719h6.00442715c3.3024346 0 6.0044272 2.70199262 6.00442725 6.00442719s-2.70199262 6.0044272-6.00442725 6.00442719z"
          fill="#FFFFFF" p-id="22488"></path>
</svg>